<svg width="12" height="19" viewBox="0 0 12 19" fill="none" xmlns="http://www.w3.org/2000/svg">
<path d="M1.24022 0.471544C0.984117 0.736975 0.840247 1.09693 0.840247 1.47225C0.840247 1.84756 0.984117 2.20752 1.24022 2.47295L8.00236 9.47928L1.24022 16.4856C0.991374 16.7526 0.853681 17.1101 0.856793 17.4812C0.859905 17.8523 1.00358 18.2073 1.25686 18.4698C1.51014 18.7322 1.85278 18.8811 2.21096 18.8843C2.56914 18.8875 2.91422 18.7448 3.17187 18.487L10.8998 10.48C11.1559 10.2145 11.2998 9.8546 11.2998 9.47928C11.2998 9.10396 11.1559 8.74401 10.8998 8.47858L3.17187 0.471544C2.91569 0.206194 2.56828 0.0571285 2.20604 0.0571285C1.84381 0.0571285 1.4964 0.206194 1.24022 0.471544Z" fill="#363636"/>
</svg>
