<svg width="19" height="11" viewBox="0 0 19 11" fill="none" xmlns="http://www.w3.org/2000/svg">
<path d="M18.4127 0.940414C18.1473 0.684313 17.7874 0.540442 17.412 0.540442C17.0367 0.540442 16.6768 0.684313 16.4113 0.940414L9.405 7.70255L2.39867 0.940413C2.13172 0.691569 1.77418 0.553875 1.40306 0.556987C1.03195 0.5601 0.67694 0.70377 0.41451 0.957053C0.152079 1.21034 0.00322234 1.55297 -3.02013e-06 1.91115C-0.00322838 2.26934 0.139439 2.61441 0.397269 2.87206L8.4043 10.6C8.66973 10.8561 9.02968 11 9.405 11C9.78032 11 10.1403 10.8561 10.4057 10.6L18.4127 2.87206C18.6781 2.61588 18.8271 2.26848 18.8271 1.90624C18.8271 1.544 18.6781 1.19659 18.4127 0.940414Z" fill="#A6A6A6"/>
</svg>
