<?xml version="1.0" encoding="UTF-8"?>
<svg id="_Слой_1" data-name="Слой 1" xmlns="http://www.w3.org/2000/svg" viewBox="0 0 2499.61 1211">
  <defs>
    <style>
      .cls-1 {
        fill: #db6900;
      }

      .cls-1, .cls-2 {
        stroke-width: 0px;
      }

      .cls-2 {
        fill: #fff;
      }
    </style>
  </defs>
  <path class="cls-1" d="M0,1210.81h1210.98V0H0v1210.81ZM2463.41.19h-1174.6v1210.81h1210.8V.19h-36.19Z"/>
  <path class="cls-2" d="M1361.37,1138.43h1065.49V72.74h-1065.49v1065.69ZM110.88,663.55v252.45h41.62v-73.3c8.14,7.07,17.1,11.31,26.7,11.31,13.75,0,25.06-7.24,33.93-21.72,9.96-16.11,14.93-39.9,14.93-71.02,0-21.72-3.98-41.26-11.76-57.91l-1.36-2.72-1.36-2.26-.92-2.26-1.36-1.81-1.36-2.26-1.81-2.26-1.36-1.81-1.36-1.81-1.81-1.81-1.36-1.81-1.81-1.81-1.81-1.36-1.81-1.81-1.81-1.36-1.81-1.36-1.81-1.36-2.26-.9-1.81-1.36-1.81-.9-2.26-.9-2.26-.92-2.26-.91-2.26-.9-2.26-.45-2.26-.45-2.26-.45-2.71-.9h-2.26l-2.71-.45h-2.26l-2.72-.45h-46.17v-.03ZM150.24,699.3h4.07c10.5,0,18.65,6.07,24.42,17.65,5.79,11.58,8.6,29.49,8.6,54.29,0,13.39-1.64,23.97-5.43,31.21-3.62,7.24-8.32,10.86-13.56,10.86s-9.24-3.43-12.66-9.96c-3.43-6.33-5.43-15.46-5.43-27.6v-76.45ZM1090.11,651.28l-3.43,3.43s-87.04,90.84-93.55,97.72v-89.04h-40.71v252.99h40.71v-103.87c1.08-1.26,53.38-56.65,59.36-62.97.36,9.22,5.96,166.85,5.96,166.85h41.62l-9.96-265.1ZM891.59,654.72l-.19.36-.36.17-.36.55-.55.54-.72.72-.72.72-.92.92-.9.91-1.08,1.08-1.08,1.28-1.28,1.26-1.26,1.26-1.27,1.45-1.45,1.45-1.62,1.62-3.25,3.45-3.43,3.62-3.62,3.81-3.79,3.98-3.98,4.15-4.17,4.16-4.16,4.34-4.17,4.53-8.5,8.86-4.16,4.35-4.15,4.17-3.98,4.16-3.79,4.17-3.79,3.81-3.45,3.62-3.26,3.43-1.62,1.62-1.45,1.63-1.45,1.45-1.27,1.45-1.26,1.27-1.08,1.27-1.09,1.08-1.08,1.08-.9.92-.72.72-.72.72-.55.72-.55.36-.36.55v-89.03h-40.91v252.98h40.9v-103.87c1.08-1.26,53.39-56.65,59.35-62.97.36,9.22,5.98,166.85,5.98,166.85h41.43l-9.96-265.15-3.26,3.45ZM654.89,853.59l-2.53-3.07-2.17-3.07-2.17-3.45-1.81-3.43-1.81-3.62-1.64-3.62-1.64-3.79-1.26-3.81-1.08-4.15-1.09-3.98-.92-4.34-.72-4.35-.55-4.53-.36-4.53-.19-4.71-.19-4.7c0-26.6,6.51-47.78,19.18-63.34,13.94-17.01,34.21-25.51,60.63-25.51h1.98v-44.16h-1.98c-41.26,0-72.93,12.66-94.46,38.18-19.54,22.99-29.49,55.01-29.49,95.19s10.86,70.75,32.02,94.82c22.44,25.33,53.39,38.36,92.48,38.36h1.99v-44.33h-1.99c-25.66-.02-45.93-8.7-60.24-26.08h0ZM327.58,657.23c-21.89,0-39.36,12.39-52.03,36.64-12.31,23.89-18.54,55.65-18.54,94.55s5.87,72.66,17.65,96.36c11.94,24.25,29.76,36.64,52.93,36.64s42.44-13.11,55.65-38.45c12.31-23.71,18.55-55.73,18.55-95.01s-6.34-70.4-19.01-94.1l-1.36-2.26-1.36-2.26-.91-2.26-1.81-1.81-.92-1.81-1.81-1.81-1.36-1.81-1.36-1.81-1.36-1.81-1.81-1.81-1.36-1.36-1.81-1.36-1.36-1.36-1.81-1.36-1.36-1.36-1.81-1.36-1.81-.92-1.81-.9-1.81-.9-1.81-.9-1.81-.92-1.81-.91-1.81-.45-2.26-.91-1.81-.45-2.26-.45-1.81-.45h-1.81l-2.26-.45-2.26-.45h-4.49v.02ZM327.58,697.94c11.58,0,20.1,8.24,25.34,24.88,5.07,15.01,7.24,36.92,7.24,65.15s-2.53,50.03-8.14,67.41l-.91,1.81-.45,1.36-.45,1.36-.45,1.36-.45,1.36-.9,1.36-.45,1.36-.91.91-.45,1.36-.92.92-.45,1.36-.45.91-.9.9-.92.9-.45.9-.9.45-.45.9-.91.9-.9.45-.92.9-.91.45-.92.45-.45.45-.91.45h-.91l-.91.45-.9.45h-.92l-.91.45h-3.19c-9.94,0-17.46-8.5-23.08-25.33-5.79-17.56-8.6-40.09-8.6-66.51s2.81-49.23,8.6-66.04c5.29-16.08,12.97-24.41,23.1-24.41h0ZM498.01,853.59l-1.08-1.45-1.27-1.62-2.36-3.07-1.98-3.45-2-3.43-1.81-3.62-1.62-3.62-1.45-3.79-1.45-3.81-1.08-4.15-1.09-3.98-.72-4.34-.72-4.35-.53-4.53-.36-4.53-.36-4.71v-4.7c0-26.6,6.33-47.78,19.18-63.34,13.75-17.01,34.02-25.51,60.44-25.51h2.17v-44.16h-2.17c-41.09,0-72.93,12.66-94.28,38.18-19.73,22.99-29.49,55.01-29.49,95.19s10.67,70.75,32.02,94.82c22.25,25.33,53.38,38.36,92.48,38.36h1.98v-44.33h-1.98c-25.9-.02-46.17-8.7-60.46-26.08h0ZM111.28,292.44v254.24h46.88v-212.09h57.91v212.09h46.69v-254.24H111.28ZM406.3,285.79c-24.8,0-44.7,12.48-58.8,37.1-13.94,24.08-20.82,55.92-20.82,95s6.51,73.38,19.91,97.27c13.56,24.43,33.66,36.64,59.72,36.64s47.58-12.76,62.42-38.45c13.94-23.88,21.27-56.18,21.27-95.46s-7.6-71.13-21.71-95l-1.36-2.26-1.36-2.26-1.36-2.26-1.81-1.81-1.36-2.26-1.81-1.81-1.36-1.81-1.81-1.81-1.81-1.81-1.36-1.36-1.81-1.81-1.81-1.36-1.81-1.36-1.81-1.36-2.26-1.36-1.81-.91-1.81-1.36-1.81-.92-2.26-.91-1.81-.9-2.26-.91-2.26-.91-1.81-.45-2.26-.92-2.26-.45-2.26-.45-2.26-.45-2.26-.45h-4.99l-2.26-.45h-2.72v.02ZM406.76,328.77c12.66,0,21.63,8.15,27.6,24.44,5.43,14.84,8.14,36.47,8.14,64.7s-3.17,49.49-9.5,66.51c-6.15,16.65-14.65,24.42-26.23,24.42h-4.08l-.91-.45-.91-.45h-.91l-.92-.45-.9-.45-.91-.45-.91-.45-.91-.45-.91-.91-.9-.45-.91-.9-.91-.45-.45-.91-.91-.9-.92-.92-.45-.91-.92-.91-.91-1.36-.45-.91-.91-.91-.45-1.36-.9-1.36-.45-.91-.45-1.81-.92-1.36-.45-1.36-.45-1.36-.91-1.36c-6.32-17.56-9.5-39.81-9.5-66.06s3.17-48.95,9.5-65.59c6.05-16.07,14.46-23.95,25.87-23.95h0ZM744.84,292.44v42.16h38.9v212.09h46.88v-212.09h39.45v-42.15h-125.22ZM642.23,380.92h-25.51c-10.49,0-18.46-2.35-23.35-7.05-3.62-3.26-5.25-7.79-5.25-13.58v-67.86h-46.86v72.57c0,16.65,6.69,30.93,19.72,42.16,12.84,11.04,28.78,16.65,47.05,16.65h34.19v122.86h46.88v-254.24h-46.88v88.5h.01ZM931.09,292.58l-8.6,254.26h46.6s4.35-118.8,4.52-124.41h58.36c.55,5.25,13.56,124.41,13.56,124.41h47.05l-21.72-185.94v-6.77l-.45-2.26v-2.26l-.45-1.81v-2.26l-.45-1.81-.45-2.26-.45-1.81-.45-1.81-.45-1.81-.45-1.81-.92-1.81-.45-1.81-.45-1.81-.91-1.81-.91-1.36-.91-1.81-.45-1.36-.92-1.81-.91-1.36-1.36-1.36-.91-1.81-.91-.92-1.36-1.81-.92-.91-1.36-1.36-1.36-1.36-1.36-.91-.92-1.36-1.8-1.36c-11.76-9.24-27.7-13.58-47.95-13.58h-69.16v.03ZM975.88,334.65h16.73c12.12,0,20.27,3.9,25.33,11.31,4.17,6.15,6.97,17.91,8.6,34.38h-52.03v-7.23l.45-1.36v-18.09l.45-1.81v-13.13l.45-.91v-3.15h.02Z"/>
  <g>
    <path class="cls-1" d="M1655.61,391.41l1.62,3.79,2,3.62,1.98,3.79,2.36,3.98,1.26,1.81,1.45,1.98,1.27,2,1.45,2,1.62,1.98,1.62,2,1.62,1.98,1.81,2,1.98,2.17,2,2,2,2.17,2.17,2.17,2.36,2.17,2.35,2.17,2.53,2.17,2.72,2.35,2.71,2.17,2.89,2.35,2.9,2.35,3.07,2.53,3.45,2.36,3.26,2.53,3.62,2.35,3.62,2.53c8.86,6.15,19.01,19.01,11.41,36.92-7.6,18.09-21.72,43.43-13.22,53.39,8.51,9.95,38.54,15.01,63.17,5.24,0,0,5.25,15.56,14.3,25.51,0,0-4.35,8.5-18.46,4.16,0,0,5.25,12.85-2,26.61,0,0-16.46-2.9-23.71-18.1,0,0-6.52,11.94-19.72,16.1,0,0-10.86-5.6-8.5-27.32,0,0-7.96,19.37-32.57,22.63,0,0-14.11-17.91,4.35-41.98,0,0-13.39,11.75-37.28,6.15,0,0-3.98-12.31,17.93-29.32,0,0-24.61-1.08-34.02-21.72,0,0,10.31-12.84,35.83-9.96,0,0-23.7-5.26-28.95-33.49,0,0,17.01-10.86,44.16,6.51,0,0-4.71-9.04-16.1-18.09-11.42-8.64-25.18-33.8-20.28-70.72h0ZM1754.42,676.44l-.72-.9-.53-.9-.72-.91-.54-.91-.55-.9-.55-.9-.53-.72-.54-.9-.55-.91-.54-.91-.36-.9-.55-.9-.36-.72-.55-.9-.36-.91-.36-.92c4.34,34.39,5.79,57.55,24.25,79.81,0,0,11.41-14.84,3.98-51.03-2.9-.91-6.52-2.34-9.96-4.7,0,0,4.34,14.66,1.63,29.49,0-.01-6.7-4.91-11.58-39.46h0ZM1722.21,672.82l-.17-.17-.17-.36-.17-.36-.36-.18-.17-.36-.36-.36-.19-.36-.36-.36-.19-.36-.36-.54-.55-.72-.53-.92-.72-.91-.54-.9-.55-.9-.72-.9-.54-.91-.54-.72-.55-.9-.17-.53-.19-.36-.36-.36-.17-.36c-1.62,19.91-6.87,72.38,10.86,88.86,0,0,11.94-8.87,16.29-85.42-2.54,4.35-7.07,8.86-9.24,11.39,0,0,2.9,24.25-5.79,41.43-.03-.02-8.72-6.73-3.46-43.46h0ZM1680.4,712.99l1.27-1.64,1.26-1.98,1.27-2.17,1.27-2.35,1.08-2.36,1.09-2.53.92-2.71,1.08-2.72.91-2.9.9-2.9.72-2.9.72-3.07,1.45-5.98.54-2.9.72-2.9.55-2.9.36-2.71.55-2.71.36-2.72.36-2.53.36-2.35.36-2.17.17-2,.19-1.98.19-1.63.17-.72v-.72l.17-.72v-1.08l.19-.36v-1.43c1.98-1.27,4.15-2.9,6.15-4.53.92-.72,1.64-1.27,2.54-2.17,0,1.98,0,3.98.17,5.98-2.17,31.85-4.71,64.78-14.65,81.25-9.77,16.11-27.7,24.44-27.7,24.44-16.82-30.04,3.43-70.21,20.44-98.26,2.23-.75,4.41-1.66,6.51-2.72-6.17,21.51-17.38,47.02-12.68,66.76h0ZM1638.6,620.87v2.53l.19.54v1.08l.17.18v.9l.17.36v.53l.19.19v.54l.19.19v.54l.17.19c.17.36.36,1.26.72,2.17-14.11,13.58-24.61,26.95-45.41,55.91-21,29.13-54.12,30.22-54.12,30.22,3.25-23.53,9.59-42.17,27.32-62.08,17.56-20.08,40.36-38.36,57.01-50.48,4.35,2,9.95,3.26,17.01,2.36.36,0,1.08-.19,1.63-.19-2.17,2.9-3.62,5.79-4.34,8.51-12.66,7.24-49.22,25.87-64.06,55.74-.02.04,23.15-7.21,63.15-49.92ZM1612.36,591.75l1.45-2.71c.36-.72.9-1.45,1.45-2.17-13.76,5.25-62.25,23.52-78,31.66-15.56,8.15-38.36,26.6-50.67,64.24,0,0,32.76,2.9,59.91-19.54,26.95-22.25,58.44-53.56,71.85-63.51-1.18-1-2.21-2.15-3.08-3.43,0,0-36.56,32.4-75.28,46.33,0,0,8.32-14.84,23.52-25.87,18.65-13.25,32.58-17.59,48.86-25h0ZM1584.68,569.48l.17-.36.19-.54.19-.53.17-.36.17-.54.19-.55.19-.19v-.19l.17-.19.17-.36c-16.1,3.43-56.1,8.14-74.01,13.58-17.92,5.43-50.13,18.63-69.31,55.2,0,0,28.23,8.69,81.26-16.29,53.2-24.97,69.85-30.22,79.99-32.93-8.15-.55-13.94-3.26-16.84-5.07-21.16,9.42-49.39,20.63-77.63,21.36,0,0,13.93-9.77,28.4-15.92,15.93-6.71,33.3-12.67,46.51-16.11h0ZM1585.95,543.06l.9.54.9.36.9.36,1.08.55.9.18.9.36.9.36.91.19.92.36,1.08.19.91.19,1.08.19.54.19h.53l.55.19h1.08l.72.19h.54l.55.19c-3.62,2.36-7.07,5.43-10.32,9.41-18.82,5.43-50.67,11.22-103.32,15.03-52.67,3.98-80.71-5.79-80.71-5.79,18.27-11.22,47.58-22.63,67.32-26.42,19.91-3.81,71.85-3.26,94.46-6.52.36.36,3.26,2.53,7.79,5.26-19.37,1.81-60.08,3.62-81.26,14.11.02-.06,38.93,5.18,90.15-9.66h0ZM1581.96,512.85l.54-.36.55-.19.53-.36.54-.17.55-.36.55-.19.54-.36.72-.36.54-.19.55-.36.72-.19.72-.36.54-.36.72-.17.72-.36.72-.19c-26.61-7.96-63.16-20.99-118.16-24.61-40.36-2.71-69.68-.36-84.69,3.62,0,0,36.73,25.88,78.9,35.11,41.98,9.05,76.18,3.26,100.97,3.43,1.81-2.53,3.62-5.07,6.52-7.96-29.13.17-77.81-7.24-95.19-13.03.01.03,42.36-9.02,101.89,7.99h0ZM1581.96,481.53v.38l.19.17v.36l.17.36v.54l.17.55.19.55.36.72.17.55.36.92.36.72.36.72.36.91.55.91.54.91.53.91.72.9.55,1.08.72.92.9.91.9,1.08.91.92.9,1.08,1.08.91,1.09.9,1.26.91,1.27,1.08,1.45.72,1.26.92,1.62.9,1.63.72c-37.47-16.29-111.3-25.7-150.75-42.35-53.57-22.08-63.34-49.95-63.34-49.95,46.33-1.27,83.78,10.14,112.56,19.01,34.02,10.31,85.41,29.49,103.32,37.64-6.7.19-14.11,2-20.27,6.34-25.15-9.58-36.92-13.75-59.89-20.27-17.92-5.07-31.32-5.98-42.54-7.07,0,0,15.93,10.5,41.99,18.82,25.93,8.24,37.15,9.69,58.31,13.66h0ZM1579.06,440.64l.19.19.17.36.17.36.19.19.19.36.17.36.17.36.36.36.17.36.17.36.36.53.17.36.55.91.72.72.54.9.55.72.17.55.36.36.17.36.36.36.19.36.36.36.19.36.19.36.17.19.17.36.19.19.19.36c-59.18-9.96-124.33-54.65-144.41-82.52-20.08-27.68-14.31-69.13-14.31-69.13,19.55,3.98,61.89,40.54,72.75,51.57,11.03,10.86,44.33,43.26,67.32,61.35l7.05,20.63c-19.55-15.74-42.88-33.29-57.55-44.33-11.22-8.5-28.04-20.27-44.51-26.06,0,0,15.2,19.91,27.69,29.68,14.31,11.41,28.77,21.18,40.71,27.69,10.71,5.75,16.14,9.19,37.67,19.5h0Z"/>
    <path class="cls-1" d="M1745.91,606.4l.36-.36.36-.36.17-.19.36-.36.36-.36.36-.17.19-.36.36-.19.19-.36.36-.36.17-.19.36-.36.19-.19.36-.36.19-.19.36-.36c2.72,3.62,11.76,15.03,16.29,26.42,3.43,9.6,7.07,22.8,8.87,30.21,1.81,7.79,7.07,23.34,10.5,28.77,0,0-14.48,2-25.16-10.67-10.5-12.12-13.94-24.43-15.75-37.09-1.27-9.92-.72-23.67.54-32.91h0ZM1723.11,608.22l.36.36.17.36.36.19.17.36.17.36.36.17.17.18.17.36.36.18.17.17.17.19.19.36.36.18.17.19h.17l.19.19.19.18.17.18.17.19h.19v.19h.19l.17.18h.17v.18h.19v.17h.19v.19l2.17.92,1.98-.55c1.81-.72,3.45-1.45,4.9-1.98,2.17,5.62,2.9,8.52,3.62,13.58.53,6.52,1.98,16.83-.54,25.33-3.07,10.32-9.24,16.48-12.66,20.63,0,0-9.42-10.5-12.12-19-2.9-8.86-3.79-19.35-.36-30.04,2.03-5.79,5.1-11.04,7.63-14.11h0ZM1690.72,609.12l.9-.19h.9l.72-.19.9-.18,1.62-.36,1.63-.36,1.64-.54,1.62-.36,1.45-.55,1.45-.53,1.26-.72,1.27-.54,1.45-.72,1.09-.55,1.26-.72,1.08-.72,1.09-.72,1.08-.72c1.27,3.26,3.08,7.97,1.81,14.29-1.62,6.52-5.98,13.94-12.5,19.01-9.77,7.79-22.62,15.01-37.09,12.66.03,0-3.23-10.68,25.36-37.28h0ZM1679.87,591.2l.19.92v.91l.19.72.17.91.17.72.19.72.19.92.17.72.36.72.19.55.17.72.36.72.19.55.36.55.17.53.19.55.36.54.17.55.19.36.36.36.17.53.19.36.19.19.17.36.17.36.19.18.19.19.17.19.17.19v.19h.19v.19c-3.43,3.98-15.56,24.79-40.9,21.36,0,0-6.87-14.3,9.96-25.52,11.38-7.85,16.98-9.29,24.78-12.02h0ZM1682.03,573.29l-1.25.36-1.26.36-1.45.19-1.45.19-1.45.19-1.45.19h-1.62l-1.62.18h-1.63l-1.81-.18h-1.62l-.9-.19h-.9l-1.09-.19h-.9l-.9-.19-.91-.19-.9-.19-1.08-.19-.9-.19-1.09-.36-2.9-.53-.91-2.9c-12.84,10.68-28.4,12.48-33.66,22.08,0,0,6.52,11.94,23.34,9.77,16.84-2,29.51-9.77,38.55-21.16.12-1.62.84-4.71,1.75-7.05h0ZM1652.89,558.45l.36-.72.55-.72.36-.72.36-.92.54-.72.36-.9.53-.92.36-.91.55-.92.54-1.08.36-.53.36-.36.19-.55.36-.55.36-.54.36-.36.36-.55.36-.53.55-.54.36-.53.55-.55.36-.36c-11.22-2-21.16-2.36-34.21.36-15.56,2.9-31.49,6.52-39.45,30.04,0,0,9.95,8.69,28.23,4.9,15.21-3.07,28.6-9.77,36.37-20.81h0ZM1646.2,532.76l-.72-.72-.72-.54-.72-.72-.72-.72-.55-.72-.72-.91-.72-.72-.54-.72-.72-.92-.53-.91-.72-.91-.55-.91-.55-1.08-.54-.92-.53-1.08-.55-1.08-1.26-2.9c-13.39-5.43-27.5-8.32-41.26-3.26-13.76,5.24-17.37,11.22-20.82,16.29,0,0,15.2,12.84,32.76,13.39,17.55.39,33.64-4.67,40.71-9.92h0ZM1650.36,505.06l.36-.19.54-.17.36-.19h.53l.36-.17.55-.19.36-.19.55-.19h.55l.54-.19.53-.19h.36l.54-.19.55-.19h.55l.54-.19c-5.79-5.24-11.76-13.21-14.66-25.33-6.15,1.45-21,1.45-27.32-.92-6.52-2.53-19.18-2.72-29.14,3.98,0,0,3.26,17.2,25.7,23.16,21.19,5.68,28.97,4.23,37.66,1.33h0ZM1642.23,471.23l2.9-2c.36-.17,5.43-3.25,14.11-3.8-7.24-5.6-24.61-20.08-36.74-26.79-13.21-7.41-35.28-17.54-46.69-19.01,0,0,10.69,27.68,22.8,38.91,12.86,11.6,21.72,15.94,43.62,12.69h0ZM1664.84,458.37l-.9-1.27-.9-1.45-1.09-1.45-.91-1.45-.72-1.64-.9-1.62-.9-1.64-.72-1.81-.72-1.81-.9-1.81-.72-1.81-.55-2-.72-1.98-.72-2-.53-2.17-.54-2c-2.72-9.41-8.51-32.21-11.94-38.36-3.43-5.98-15.92-26.6-40.17-33.12,0,0-6.34,26.95,5.79,48.67,10.47,18.5,32,38.05,58.78,50.71h0ZM1799.66,584.68l.72.55.54.53.55.55.53.36.55.55.54.36.55.55.54.36.55.36.72.55.36.19.36.19.36.19.36.36.36.19.36.19.55.17.36.36.36.19.54.19.54.36.36.19s7.79,14.84-1.62,32.57c-9.41,17.91-17.2,36.19-20.99,46.33,0,0-5.07-.72-10.67-28.76-3.8-18.82-8.5-23.71-13.57-30.04,5.43,2.71,9.77,3.43,10.32,3.43l3.62.91,1.81-3.62c2.77-5.43,4.2-11.46,4.15-17.56,0-1.81,0-3.43-.19-4.9,8.69.36,13.39-4.15,15.2-6.33.17-.36.36-.36.36-.53l.9,1Z"/>
    <path class="cls-1" d="M1593.36,370.43v8.54l.54,6.69c-14.48-18.28-31.66-40.35-47.95-60.8-11.21-13.93-20.63-22.25-31.31-29.14,9.05,25.87,24.98,46.51,36.19,56.65,11.22,10.31,27.5,27.68,43.43,38.36l1.45,5.07c1.28,5.03,3.16,9.9,5.6,14.48,4.19,6.85,9.04,13.27,14.48,19.18-4.97-2.56-10.04-4.91-15.2-7.05l-5.07-2.17c-43.62-22.98-87.05-71.11-104.41-104.41-17.54-33.49-10.32-72.2-5.79-93.01,19.91,16.83,48.69,49.95,60.99,67.86,15.39,22.08,34.94,53.57,47.05,79.09v.67ZM2206.28,512.85l-.54-.36-.36-.19-.53-.36-.55-.17-.54-.36-.72-.19-.55-.36-.53-.36-.55-.19-.72-.36-.53-.19-.72-.36-.72-.36-.72-.17-.72-.36-.72-.19c26.78-7.96,63.34-20.99,118.54-24.61,40.35-2.71,69.3-.36,84.5,3.62,0,0-36.92,25.88-78.9,35.11-41.99,9.05-76.19,3.26-101.16,3.43-1.8-2.89-3.92-5.56-6.33-7.96,29.13.17,77.63-7.24,95.19-13.03-.01.03-42.36-9.02-102.08,7.99h0ZM2206.46,481.53v.38l-.19.17v.36l-.17.36-.19.54v.55l-.36.55-.17.72-.19.55-.36.92-.36.72-.36.72-.55.91-.36.91-.54.91-.55.91-.72.9-.72,1.08-.72.92-.72.91-.91,1.08-.9.92-1.08,1.08-1.09.91-1.08.9-1.08.91-1.45,1.08-1.26.72-1.45.92-1.45.9-1.62.72c37.45-16.29,111.11-25.7,150.92-42.35,53.39-22.08,63.17-49.95,63.17-49.95-46.33-1.27-83.97,10.14-112.73,19.01-33.85,10.31-85.23,29.49-103.32,37.64,6.87.19,14.3,2,20.44,6.34,25.16-9.58,36.92-13.75,59.72-20.27,18.09-5.07,31.3-5.98,42.54-7.07,0,0-15.76,10.5-41.81,18.82-26.08,8.24-37.31,9.69-58.28,13.66h0ZM2209.36,440.64v.19l-.19.36-.19.36-.17.19-.36.36-.17.36-.19.36-.17.36-.36.36-.19.36-.54.91-.55.91-.72.72-.53.9-.55.72-.17.55-.36.36-.17.36-.36.36-.19.36-.36.36-.17.36-.19.36-.17.19-.19.36-.36.19-.17.36c59.17-9.96,124.31-54.65,144.41-82.52,20.27-27.68,14.48-69.13,14.48-69.13-19.54,3.98-61.89,40.54-72.92,51.57-10.86,10.86-44.16,43.26-67.13,61.35l-7.07,20.63c19.54-15.74,42.9-33.3,57.36-44.33,11.39-8.5,27.87-20.27,44.71-26.06,0,0-15.39,19.91-27.7,29.68-14.3,11.41-28.95,21.18-40.9,27.7-10.51,5.73-16.11,9.18-37.46,19.48h0ZM2195.06,370.43v8.52l-.55,6.69c14.3-18.29,31.49-40.35,47.77-60.8,11.39-13.93,20.81-22.25,31.3-29.14-8.87,25.87-24.8,46.51-36.02,56.65-11.22,10.31-27.5,27.68-43.43,38.36l-1.45,5.07c-1.45,4.9-3.26,9.77-5.79,14.48-3.79,6.52-8.69,12.86-14.3,19.18,4.95-2.59,10.02-4.95,15.2-7.05l4.9-2.17c43.62-22.98,87.05-71.11,104.41-104.41,17.92-33.48,10.49-72.2,5.79-93.01-19.91,16.84-48.5,49.95-60.8,67.87-15.37,22.08-34.92,53.57-47.05,79.09v.68h.03ZM1649.27,634.27l-1.81,1.81-1.81,1.81-2,2-1.98,2.17-2.17,2.17-2.17,2.35-2.17,2.53-2.17,2.54-2.35,2.72-2.35,2.71-2.17,2.9-2.35,2.9-2.17,3.07-2.35,3.26-2.17,3.26-2.17,3.26-1.98,3.45-1.98,3.43-2,3.45-1.81,3.62-1.81,3.62-1.45,3.8-1.45,3.62-1.45,3.98-1.08,3.79-1.09,3.81-.72,3.98-.72,3.98-.36,3.98-.17,4.15-.17,3.98.36,4.17s35.11-11.04,49.75-36.91c14.48-25.7,23.35-42.17,29.5-47.96-3.84.55-7.74.55-11.58,0l-3.26-.54c-9.04,16.29-26.78,43.07-42.7,52.3,0,0-3.99-21.71,42.89-65.51.72-1.81,1.62-3.79,2.9-5.98-4.35,1.62-9.05,2.35-14.66,2.17M2132.8,391.41l-1.81,3.79-2,3.62-1.98,3.79-2.35,3.98-1.26,1.81-1.27,1.98-1.45,2-1.45,2-1.45,1.98-1.64,2-1.81,1.98-1.81,2-1.81,2.17-1.98,2-2,2.17-2.17,2.17-2.36,2.17-2.35,2.17-2.54,2.17-2.71,2.35-2.71,2.17-2.89,2.35-2.9,2.35-3.07,2.53-3.26,2.36-3.43,2.53-3.62,2.35-3.62,2.53c-9.05,6.15-19.01,19.01-11.41,36.92,7.6,18.09,21.71,43.43,13.2,53.39-8.5,9.95-38.73,15.01-63.34,5.24,0,0-5.24,15.56-14.11,25.51,0,0,4.34,8.5,18.46,4.16,0,0-5.25,12.85,1.98,26.61,0,0,16.48-2.9,23.53-18.1,0,0,6.52,11.94,19.72,16.1,0,0,11.03-5.6,8.52-27.32,0,0,7.96,19.37,32.74,22.63,0,0,14.11-17.91-4.34-41.98,0,0,13.2,11.75,37.28,6.15,0,0,3.79-12.31-17.92-29.32,0,0,24.61-1.08,34.02-21.72,0,0-10.5-12.84-36-9.96,0,0,23.71-5.26,28.95-33.49,0,0-17.01-10.86-43.98,6.51,0,0,4.7-9.04,16.11-18.09,11.22-8.64,24.98-33.8,20.27-70.72h0ZM2034,676.44l.72-.9.55-.9.54-.91.72-.91.55-.9.54-.9.53-.72.55-.9.53-.91.36-.91.55-.9.36-.9.54-.72.36-.9.36-.91.36-.92c-4.15,34.39-5.62,57.55-24.25,79.81,0,0-11.22-14.84-3.98-51.03,3.56-1,6.92-2.59,9.96-4.7,0,0-4.15,14.66-1.63,29.49.02-.01,6.7-4.91,11.77-39.46h0ZM2066.03,672.82l.36-.17.19-.36.17-.36.19-.18.36-.36.17-.36.36-.36.19-.36.36-.36.17-.54.72-.72.54-.92.55-.91.72-.9.53-.9.55-.9.54-.91.55-.72.54-.9.36-.53.17-.36.19-.36.19-.36c1.62,19.91,6.87,72.38-10.69,88.86,0,0-12.12-8.87-16.29-85.42,2.54,4.35,7.07,8.86,9.05,11.39,0,0-2.9,24.25,5.79,41.43,0-.02,8.87-6.73,3.45-43.46h0ZM2108.02,712.99l-1.45-1.64-1.26-1.98-1.27-2.17-1.08-2.35-1.26-2.36-.9-2.53-1.08-2.71-.92-2.72-.9-2.9-.91-2.9-.72-2.9-.91-3.07-1.26-5.98-.72-2.9-.55-2.9-.53-2.9-.36-2.71-.54-2.71-.36-2.72-.36-2.53-.36-2.35-.36-2.17-.19-2-.17-1.98-.19-1.63-.17-.72v-.72l-.19-.72v-1.08l-.17-.36v-1.43c-2.17-1.27-4.15-2.9-6.15-4.53-.91-.72-1.81-1.27-2.53-2.17,0,1.98,0,3.98-.36,5.98,2.35,31.85,4.9,64.78,14.84,81.25,9.77,16.11,27.7,24.44,27.7,24.44,16.82-30.04-3.43-70.21-20.63-98.26-2.18-.76-4.29-1.67-6.34-2.72,5.95,21.51,17.17,47.02,12.65,66.76h0ZM2149.81,620.87v2.53l-.19.54v1.08l-.17.18v.71l-.19.19v.71l-.17.19v.54l-.19.19v.72l-.17.19c-.19.36-.36,1.26-.72,2.17,14.11,13.58,24.61,26.95,45.41,55.91,20.81,29.13,54.12,30.22,54.12,30.22-3.26-23.53-9.77-42.17-27.51-62.08-17.56-20.08-40.35-38.36-56.82-50.48-4.34,2-9.94,3.26-17.01,2.36-.72,0-1.09-.19-1.62-.19,2.17,2.9,3.62,5.79,4.35,8.51,12.48,7.24,49.22,25.87,64.06,55.74,0,.04-23.16-7.21-63.17-49.92h0ZM2176.06,591.75l-1.45-2.71c-.42-.76-.9-1.49-1.45-2.17,13.58,5.25,62.06,23.52,77.81,31.66,15.75,8.15,38.36,26.6,50.67,64.24,0,0-32.76,2.9-59.72-19.54-26.97-22.25-58.45-53.56-72.02-63.51,1.45-1.08,2.53-2.35,3.26-3.43,0,0,36.55,32.4,75.28,46.33,0,0-8.33-14.84-23.71-25.87-18.46-13.25-32.4-17.59-48.67-25h0ZM2203.74,569.48l-.19-.36-.17-.54-.19-.53-.36-.36-.17-.54-.19-.55-.17-.36-.19-.53c15.93,3.43,56.1,8.14,74.01,13.58,17.73,5.43,50.13,18.63,69.32,55.2,0,0-28.23,8.69-81.43-16.29-53.02-24.97-69.66-30.23-79.8-32.93,8.13-.55,13.94-3.26,16.82-5.07,21.18,9.42,49.4,20.63,77.64,21.36,0,0-13.94-9.77-28.59-15.92-15.74-6.73-33.11-12.7-46.33-16.14h0ZM2202.48,543.06l-.9.54-.91.36-1.08.36-.92.55-.9.18-.91.36-.9.36-.9.19-.91.36-1.08.19-.9.19-1.08.19-1.09.19-.54.19h-1.27l-.54.19h-.55l-.72.19c3.96,2.58,7.5,5.75,10.5,9.41,18.64,5.43,50.49,11.22,103.15,15.03,52.65,3.98,80.7-5.79,80.7-5.79-18.28-11.22-47.58-22.63-67.32-26.42-19.72-3.81-71.66-3.26-94.46-6.52-.36.36-2.9,2.53-7.6,5.26,19.18,1.81,60.07,3.62,81.07,14.11-.02-.06-38.74,5.18-89.94-9.66h0Z"/>
    <path class="cls-1" d="M2042.32,606.4l-.55-.72-.36-.19-.36-.36-.36-.36-.17-.17-.36-.36-.19-.19-.36-.36-.17-.36-.36-.19-.19-.36-.36-.19-.19-.36-.36-.19-.17-.36c-2.9,3.62-11.94,15.03-16.48,26.42-3.26,9.6-7.07,22.8-8.69,30.21-1.98,7.79-7.24,23.34-10.5,28.77,0,0,14.31,2,24.98-10.67,10.5-12.12,14.31-24.43,15.75-37.09,1.27-9.92.91-23.67-.54-32.91h0ZM2065.13,608.22l-.17.36-.36.36-.19.19-.17.36-.36.36-.19.17-.17.18-.36.36-.19.18-.17.17-.19.19-.36.36-.17.18-.19.19h-.17l-.19.19-.17.18-.17.18-.19.19h-.19l-.17.19h-.17l-.19.18-.17.18h-.19v.17h-.36v.19l-1.81.92-2.17-.55c-1.64-.72-3.26-1.45-4.9-1.98-2,5.62-2.9,8.52-3.45,13.58-.72,6.52-1.99,16.83.55,25.33,3.07,10.32,9.04,16.48,12.48,20.63,0,0,9.58-10.5,12.12-19,2.9-8.86,3.98-19.35.36-30.04-1.79-5.79-4.86-11.04-7.58-14.11h0ZM2097.7,609.12l-.9-.19h-.9l-.91-.19-.9-.18-1.64-.36-1.62-.36-1.62-.54-1.45-.36-1.45-.55-1.45-.53-1.45-.72-1.26-.54-1.26-.72-1.27-.55-1.09-.72-1.27-.72-1.08-.72-.9-.72c-1.26,3.26-3.26,7.97-1.81,14.29,1.45,6.52,5.98,13.94,12.48,19.01,9.6,7.79,22.61,15.01,36.92,12.66-.01,0,3.42-10.68-25.18-37.28h0ZM2108.56,591.2l-.17.92-.19.91-.17.72v.91l-.19.72-.17.72-.36.92-.19.72-.17.72-.19.55-.36.72-.17.72-.19.55-.36.55-.19.53-.36.55-.17.54-.19.55-.36.36-.17.36-.19.53-.17.36-.36.19-.19.36-.17.36-.19.18v.19l-.17.19-.19.19v.19h-.17v.19c3.26,3.98,15.56,24.79,40.9,21.36,0,0,6.7-14.3-10.14-25.52-11.39-7.85-16.82-9.29-24.61-12.02h0ZM2106.21,573.29l1.26.36,1.45.36,1.45.19,1.45.19,1.45.19,1.45.19h1.62l1.62.18h1.62l1.8-.18h1.64l1.81-.19.91-.19h1.09l.9-.19.9-.19.91-.19,1.08-.19.9-.19.91-.36,2.9-.53,1.08-2.9c12.84,10.68,28.4,12.48,33.66,22.08,0,0-6.52,11.94-23.35,9.77-16.82-2-29.49-9.77-38.54-21.16-.35-1.62-1.07-4.71-1.97-7.05h0ZM2135.53,558.45l-.19-.36-.17-.36-.55-.72-.36-.72-.36-.92-.54-.72-.36-.9-.53-.92-.55-.91-.36-.92-.54-1.08-.36-.53-.36-.36-.19-.55-.36-.55-.36-.54-.36-.36-.36-.55-.36-.53-.55-.54-.36-.53-.53-.55-.36-.36c11.03-2,21.16-2.36,34.19.36,15.56,2.9,31.49,6.52,39.45,30.04,0,0-10.13,8.69-28.23,4.9-15.2-3.07-28.77-9.77-36.37-20.81h0ZM2142.04,532.76l.72-.72.72-.54.72-.72.72-.72.72-.72.72-.91.55-.72.72-.72.53-.92.72-.91.55-.91.54-.91.55-1.08.53-.92.54-1.08.55-1.08,1.26-2.9c13.56-5.43,27.51-8.32,41.26-3.26,13.75,5.24,17.37,11.22,20.8,16.29,0,0-15.2,12.84-32.57,13.39-17.55.39-33.83-4.67-40.89-9.92h0ZM2138.04,505.06l-.9-.36-.54-.19h-.36l-.55-.17-.36-.19-.53-.19-.55-.19h-.54l-.36-.19-.53-.19h-.55l-.54-.19-.55-.19h-.54l-.55-.19c6.15-5.24,11.76-13.21,14.66-25.33,6.52,1.45,21,1.45,27.51-.92,6.52-2.53,19.18-2.72,29.13,3.98,0,0-3.26,17.2-25.87,23.16-21.01,5.68-28.97,4.23-37.48,1.33h0ZM2146.02,471.23l-2.9-2c-.36-.17-5.43-3.25-13.94-3.8,7.24-5.6,24.44-20.08,36.56-26.79,13.39-7.41,35.47-17.54,46.69-19.01,0,0-10.5,27.68-22.8,38.91-12.67,11.6-21.53,15.94-43.61,12.69h0ZM2123.39,458.37l1.09-1.27.91-1.45.9-1.45.92-1.45.9-1.64.9-1.62.92-1.64.72-1.81.72-1.81.9-1.81.72-1.81.72-2,.53-1.98.72-2,.55-2.17.72-2c2.35-9.41,8.32-32.21,11.76-38.36,3.43-5.98,15.92-26.6,40.17-33.12,0,0,6.34,26.95-5.79,48.67-10.66,18.5-32.2,38.05-58.98,50.71h0ZM1988.76,584.68l-.72.55-.55.53-.53.55-.55.36-.53.55-.55.36-.54.55-.53.36-.72.36-.72.55-.19.19-.36.19-.36.19-.36.36-.53.19-.36.19-.36.17-.36.36-.53.19-.36.19-.55.36-.54.19s-7.6,14.84,1.62,32.57c9.41,17.91,17.37,36.19,21.16,46.33,0,0,5.07-.72,10.68-28.76,3.79-18.82,8.69-23.71,13.58-30.04-5.62,2.71-9.96,3.43-10.32,3.43l-3.62.91-1.81-3.62c-3.43-6.34-4.34-12.49-4.34-17.56,0-1.81.19-3.43.36-4.9-8.69.36-13.56-4.15-15.2-6.33q-.19-.36-.55-.53l-.73,1Z"/>
    <path class="cls-1" d="M2139.14,634.27l1.81,1.81,1.81,1.81,1.98,2,1.98,2.17,2.17,2.17,1.99,2.35,2.36,2.53,2.17,2.54,2.36,2.72,2.17,2.71,2.36,2.9,2.35,2.9,2.17,3.07,2.17,3.26,2.36,3.26,1.98,3.26,2.17,3.45,1.98,3.43,1.98,3.45,1.81,3.62,1.62,3.62,1.63,3.8,1.45,3.62,1.26,3.98,1.26,3.79.91,3.81.9,3.98.72,3.98.36,3.98.17,4.15v3.98l-.17,4.17s-35.29-11.04-49.76-36.91c-14.48-25.7-23.35-42.17-29.49-47.96,3.79.55,7.77.55,11.58,0l3.26-.54c9.05,16.29,26.61,43.07,42.54,52.3,0,0,4.15-21.71-42.71-65.51-.82-2.09-1.84-4.1-3.07-5.98,4.35,1.62,9.22,2.35,14.84,2.17M1866.62,284.66v-.36l.17-.36.19-.19.17-.36.36-.19.36-.36.36-.19.54-.36.55-.19.54-.36.72-.19.72-.19.72-.36.9-.19.92-.17.9-.19.91-.19.9-.17,1.08-.19,1.09-.19,1.09-.19,1.26-.17,1.08-.19h1.26l1.27-.19,1.26-.19h2.71l1.26-.19h4.17c15.21,0,27.51,2.71,27.51,5.98,0,3.07-12.31,5.79-27.51,5.79-15.16.07-27.46-2.64-27.46-5.71h0ZM1773.05,316.32v-.19l.17-.19v-.17l.17-.19.19-.17.36-.19h.17l.36-.19.36-.19.36-.19h.36l.55-.19.54-.19.36-.19h.72l.55-.19h.54l.72-.17.72-.19h.54l.72-.19h1.62l.72-.19h1.63l.9-.19h4.52c9.58,0,17.73,1.45,17.73,3.26s-8.15,3.07-17.73,3.07c-9.92.09-17.88-1.17-17.88-2.98h0ZM1899.55,297.33v1.27l-.17.19v.36l-.19.19v.36l-.19.19v.19l-.17.19-.17.36-.19.19-.17.19-.19.19-.17.19-.19.19-.17.19-.19.19-.17.19-.19.17h-.17l-.36.17-.19.19h-.17l-.36.19h-.55l-.17.17h-.91c-2.9,0-5.43-2.35-5.43-5.6,0-2.72,2.53-5.26,5.43-5.26,2.91-.09,5.34,2.19,5.43,5.1,0,.02,0,.04,0,.05h0ZM1864.62,278.87l-.9-2.17-.72-1.98-.9-1.81-.72-1.98-.72-1.81-.72-1.98-.92-1.81-.53-1.64-.72-1.81-.72-1.64-.54-1.63-.72-1.62-.55-1.63-.53-1.45-.54-1.45-.55-1.45-.53-1.45-.36-1.26-.36-1.27-.55-1.27-.36-1.08-.36-1.09-.17-1.08-.36-1.08-.19-.92-.17-.9-.19-.92-.17-.72-.17-.72v-1.81c.17-3.26,3.98-5.62,7.6-6.7,3.79-1.08,6.88-1.45,9.42.36,4.7,3.79,9.22,33.11,10.67,45.43-4.54.91-7.27,1.63-12.69,4.36h0ZM1881.46,274.15l.36-.19h1.26l.92-.19h2.7l1.81-.19c-1.63-11.76-5.62-31.12-7.96-38.9-2.36-7.79-5.43-13.21-10.5-14.66,0,0,3.98,10.68,6.15,21.71,2.17,11.08,3.62,21.92,5.25,32.41h0ZM1852.31,313.24l1.08-.19.9-.36.9-.36.92-.36.9-.36,1.08-.55.9-.36.91-.55.9-.55.72-.54.91-.55.9-.55.72-.54.9-.55.72-.53.72-.72.72-.55.55-.54.72-.55.55-.36.53-.53.55-.54.54-.36.55-.53.36-.36.36-.19.17-.36.36-.36.17-.17h.19v-.19c-16.26,2.37-20.43,13.23-20.43,13.23h0Z"/>
    <path class="cls-1" d="M1867.52,312.34l-1.45.72-1.26.55-1.27.72-1.45.55-1.27.55-1.26.54-1.45.36-1.26.53-1.27.36-1.26.19-1.26.36-1.27.36-1.08.19-1.26.17-1.08.19-1.08.19h-1.09l-.9.19h-.9l-.92.19h-5.79c3.07-5.62,5.98-10.86,14.66-17.01,8.86-6.34,23.16-7.97,28.77-7.24-1.29,4.3-7.08,13.35-13.59,17.33h0ZM1864.4,319.73c-10.5,4.9-43.07,5.43-60.63,6.34h-11.3l-1.36-.45h-1.81l-1.36-.45h-1.36l-1.36-.45-1.36-.45h-1.36l-1.36-.45h-1.36l-1.36-.45h-.9l-1.36-.45-.9-.45h-.88l-.91-.45-.9-.45h-1.36l-.45-.45h-.45l-.91-.45h-.45c2,38.37,28.06,40.73,28.06,40.73-.36-3.07,0-8.15,0-8.15,8.14,7.6,24.88,13.11,24.88,13.11-.14-2.94-.75-5.85-1.81-8.6,7.07,4.16,11.31,4.07,11.31,4.07-.72-5.43-4.07-11.76-4.07-11.76,4.89,6.33,10.86,6.79,10.86,6.79,1.08-3.07-.92-10.86-.92-10.86,2.54,3.07,7.24,11.22,21.72,14.48,14.84,3.07,21.27-5.43,21.27-5.43-14.11.91-27.59-12.67-27.59-12.67,7.6-2.9,10.41-8.14,10.41-8.14-4.53-3.81-9.04-4.07-9.04-4.07,8.31-3.86,10.39-10.47,10.39-10.47h0ZM1814.63,334.2v1.36s-22.61.08-23.52,11.31c-3.62-2.36-5.43-6.69-6.34-11.76.01,0,16.12.9,29.86-.91ZM1764.91,323.2l.17,1.64.19,1.45.17,1.64.19,1.45.17,1.62.36,1.45.36,1.45.36,1.45.36,1.45.36,1.45.36,1.26.55,1.27.36,1.27.55,1.27.54,1.08.55,1.09s-10.31-7.6-12.84-14.29c-2.55-6.72-3.27-11.07,7.22-7.99ZM1734.56,330.58c-4.47.49-8.6,2.35-11.31,6.33-5.25,7.79-3.35,22.63,7.69,28.95,0,0,16.56-14.39,36.64-.45,0,0,4.43-2.62,14.92-4.98v-.45h-.45v-.45l-.45-.45-.45-.45h-.45v-.45l-.45-.45-.45-.45-.45-.45-.45-.45-.45-.45h-.48l-.45-.91h-.45l-.45-.92h-.45l-.45-.45-.9-.45-.45-.45-.45-.45-.9-.45-.45-.45-.45-.45-.92-.45h-.49l-.9-.45-.45-.45c-6.15-2.71-18.82-6.51-22.61-18.09-2.91-.77-7.75-1.45-12.24-.96h0ZM1744.07,345.95c2.36,0,4.53,2.17,4.53,4.53v.9h-.45v.9h-.45v.9h-.45v.45h-.45v.45h-.9v.45h-.94l-.45.45h-.45c-2.35,0-4.07-2.17-4.07-4.53-.02-2.32,1.71-4.49,4.07-4.49h0ZM1784.82,363.01l.17.19.19.17v.19h.17l.19.36.17.19.36.36.19.55.36.36.36.36.36.54.36.55.55.36.36.55.54.53.36.72.55.54,1.08,1.08.9,1.08,1.08,1.28.54.55.55.53.54.55.55.54.53.36.54.55.55.36.54.53s-27.15-.36-33.84,23.16c0,0-9.24-14.48-2.53-23.71,7.24-9.97,14.12-11.41,23.71-13.41h0Z"/>
    <path class="cls-1" d="M1814.5,368.61l.19.19h.36l.17.19h.55l.36.19.36.19h.36l.53.17.36.19h.55l.36.19.55.19.9.17.91.36,1.09.17.36.19.54.19.36.19h.54l.36.19.36.19h.36l.36.19h.36l.36.19s0-5.07-.17-7.42c2.71.54,5.79,1.45,8.69,1.81,0,0,8.69,19.18,15.56,26.95,0,0,.36,4.53-3.43,10.86,0,0-5.07-11.22-13.76-20.63-4.91-5.14-8.17-7.86-18.47-15.1h0ZM1791.51,364.63h.19l.36.19h.54l.36.19.55.17.54.19.72.19.55.17.72.36.72.17.72.19.91.36.72.19.9.36.72.36.9.36,1.81.72,1.81.72,1.81.72,1.62.72.9.55.92.36.72.36.9.53.72.36.72.36.72.54.53.36c8.51,6.15,14.3,13.03,13.39,25.15,0,0-6.71-9.58-14.31-13.93-5.94-3.27-16.79-12.68-22.41-21.01h0ZM1791.7,276.69h.55l.19.19h.9l.36.19h.55l.36.19h.36l.17.19h.36l.36.19.36.19.17.17.36.19.19.19.36.19.17.19.36.19.19.19.17.19.19.36.17.19.19.36.17.17v.38l.19.17v.57l.17.19v.57c0,4.15-6.51,14.11-8.32,18.46-1.81-4.34-8.14-14.29-8.14-18.46s4.88-5.43,7.42-5.43h1.45v-.15ZM1786.08,309.08l-.17-.72-.19-.53v-.72l-.17-.72-.19-.72-.17-.72-.19-.92v-.72l-.17-.91-.19-.9-.36-1.81-.53-1.81-.36-2-.36-1.81-.36-.9-.19-.91-.17-.72-.36-.92-.17-.72-.36-.72-.19-.72-.36-.72-.36-.72-.17-.54-.36-.55-.36-.55-.36-.36-.19-.36c-3.62-3.08-8.69-3.45-11.03-3.26-2.53.19-5.25,2.72-4.15,6.15s12.31,20.27,13.75,22.25c2.52-.33,1.97-.33,8.49-.69h0ZM1795.85,309.08l.17-.72.19-.53v-.72l.17-.72.19-.72.17-.72.19-.92.17-.72.19-.91.17-.9.36-1.81.36-1.81.36-2,.55-1.81.17-.9.19-.91.36-.72.17-.92.36-.72.17-.72.36-.72.19-.72.36-.72.17-.54.36-.55.36-.55.36-.36.19-.36c3.62-3.08,8.5-3.45,11.03-3.26s5.07,2.72,4.15,6.15c-1.08,3.43-12.31,20.27-13.75,22.25-2.5-.33-2.15-.33-8.49-.69h0ZM1803.09,256.43h-8.69v-9.6h-7.05v9.6h-8.69v6.15h8.69v11.21h7.05v-11.21h8.69v-6.15ZM1697.6,318.5v-2.71l.17-.72v-1.27l.17-.36v-.36c.55-4.71.72-8.86.19-12.12-6.34,2.36-10.68,3.99-19.18,17.91,0,0,13.75-8.52,18.65-.36ZM1709.54,340.74v-.36l.19-.55v-1.27l.17-.54v-.53l.17-.72.19-.53v-.72l.19-.55.17-.72v-.72l.17-.72.19-.91.19-.72.36-1.45.36-1.63.53-1.64.36-1.62.55-1.63.54-1.64.55-1.62.17-.72.36-.72c3.62-9.42,1.26-23.16-2.9-31.3-3.98-8.14-6.34-15.75-5.62-24.08,0,0-8.14,2.72-12.84,5.62-.72,9.77,4.89,19.37,7.6,24.8,3.08,6.52,2.53,14.84,1.81,20.08-1.09,8.89.72,18.3,6.51,27.16h0ZM1710.44,266.74v-.55h-.19v-2.95l.19-.19v-.92l.17-.17v-.37l.17-.17s12.84-12.48,23.53-14.66c6.87-1.45,11.03,1.64,13.21,3.26,0,0-3.98-.36-9.6,4.34-5.79,4.53-12.84,10.32-18.46,11.77-5.21,1.36-6.49,1-9.02.63ZM1748.44,251.17l.9.92.92.91.91.9.72.92.9.91.72.91.17.36.36.53.36.36.36.54.19.55.36.36.19.55.36.36.17.36.19.55.17.36.19.54.17.36.19.54.17.36v.55l.19.36v1.27c-.19,4.53-5.43,16.1-8.32,20.44-2.72,4.34-6.71,10.13-6.34,17.01.19,3.62,2.71,7.24,5.62,10.13,0,0-15.75-3.79-17.55-13.39-1.81-8.69,1.81-14.84,4.35-19.72,2.35-4.53,9.77-15.03,11.39-19.37,1.81-4.01,2.53-7.27,1.98-9.44h0ZM1840.37,360.48l.55,1.98.72,2.17.72,1.99.72,2,.72,1.98.91,2,.9,2,.9,1.81.91,1.81.9,1.98.92,1.81.9,1.63,1.08,1.81.9,1.63.91,1.62,1.08,1.45c4.71,7.42,7.6,19.73,7.24,23.89,0,0,7.05-15.75,3.43-26.79-2.71-8.68-10.48-21.35-24.42-26.78h0ZM1857.93,364.1h1.45l.36.19h2l.54.19h1.08l.72.19h.54l.72.19h.55l.72.19.72.17.54.19.72.19h.54l.72.36.55.19.72.17.54.19.55.36.54.19.53.36.55.19c6.52,4.34,12.66,13.58,15.03,24.8,0,0-11.04-1.81-16.29-7.24-5.42-5.33-11.94-13.46-14.65-21.06h0ZM1802.19,383.64h-1.08l-.36.17h-.54l-.36.19h-.72l-.36.19-.72.17-.72.19h-.72l-.72.19-.72.19-.72.19-.36.19h-.36l-.36.19h-.36l-.17.19h-.72l-.17.19s9.22,2.71,13.75,6.34c3.79,3.26,7.24,8.33,8.86,16.65,2.36,11.75,9.24,24.42,11.22,28.23l.91-.17c-1.45-8.15,3.62-24.8,5.07-27.14,0,0-7.43-4.71-10.67-9.42-2.56-3.52-6.73-9.31-18.85-16.72h0ZM1849.97,408.79l.36.55.19.55.36.72.36.72.36.55.17.72.36.91.55.72.36.72.36.91.72,1.64.72,1.63.19.9.36.91.36,1.08.17.92.36.91.19.9.17,1.08.19.92.17,1.08.19,1.08v3.07l-.19,1.08v.92l-.17,1.08-.19,1.09-.36,1.08c-3.26,11.39-10.5,16.29-15.2,25.87,0,0-3.62-17.37-2.9-30.76.9-13.62,5.78-18.69,11.76-23.58h0ZM1870.77,409.15v.19l.17.19v.19l.19.19v.17l.17.19.19.17v.36l.17.36.36.54.36.72.36.91.53.92.36.9.55,1.08.54.92.55,1.08.36,1.26.53,1.08.55,1.09.72,1.27,1.08,2.53.92,2.36.53,1.26.55,1.08.54,1.09.36,1.27.36,1.08.36.92.36,1.08.36.92.17.91.36.72c1.81,8.15,0,13.39-3.62,18.27-3.62,4.89-9.77,10.32-15.56,20.46,0,0-6.51-8.69-7.41-13.21-.72-4.7.54-15.56,1.98-20.09s7.08-19.41,11.96-34.44h0ZM1876.2,475.57l-.17.19h-.19v.17l-.17.19-.19.19-.17.36-.55.36-.36.54-.53.55-.55.72-.54.55-.53.72-.55.72-.72.92-.72.72-.54.9-.72.72-1.45,1.81-1.26,1.62-.72.91-.55.91-.72.91-.53.72-.54.9-.55.72-.53.72-.55.72-.53.72-.36.72-.36.53-.19.54-.17.36-.19.19v.19l-.17.19c-1.62,4.53-4.53,12.66-.72,18.46,4.15,5.79,12.84,15.03,20.63,19.01,0,0-8.33-13.2-7.6-24.07.54-7.05,5.97-13.21,7.05-17.37.88-4.2.16-11.44-2.73-17.96ZM1851.59,467.24l.17.19.19.36.17.19.19.36.36.36.17.36.19.36.17.36.19.55.36.36.17.55.19.36.17.55.17.36.55,1.08.36,1.09.36,1.08.36,1.09.36,1.08.36,1.09v.72l.17.55.19.54v1.27l.17.55c.36,6.15-.54,11.22-3.98,20.44-4.15,11.39-10.86,24.25-13.94,30.04,0,0-5.98-8.5-9.24-15.92,0,0,9.24-12.67,13.03-21.53,4.73-10.55,6.54-20.33,8.35-28.46h0ZM1847.43,462.18v.17l-.19.19v1.1l-.17.72-.19.72-.17,1.08-.19,1.08-.36,1.28-.17,1.26-.36,1.45-.36,1.64-.54,1.62-.36,1.63-.55,1.81-.53,1.98-.72,1.81-.55,1.98-.72,2.17-.9,1.98-.72,2.17-.9,2.17-.91,2.17-1.08,2.17-1.08,2.17-1.28,2.17-1.08,2.17-1.45,2.35-1.27,2.17-1.45,1.98-1.45,2.17-1.62,2.17c-11.75,14.84-21.35,20.1-27.68,20.1-9.6,0-19.18-8.15-22.44-17.2s-2.17-23.34,3.98-28.23c0,0,5.79,17.73,17.91,18.46,13.93.74,31.66-14.82,49.58-44.86h0Z"/>
    <path class="cls-1" d="M1833.13,449.87l.17.55v.54l.19.55v.54l.36,1.08.17,1.27v1.26l.19,1.27.17,1.27v4.17l-.17,1.45-.19,1.45v1.45l-.36,1.45-.17,1.45-.36,1.45c-1.45,5.79-5.07,13.39-11.76,17.73-5.98,3.62-19.73,4.53-25.16-8.69,0-.03,25.34,1.97,36.92-30.25ZM1874.58,569.31l.36.72.36.91.54.91.36.9.55.92.53.91.72.91.54.91,1.27,1.81,1.26,1.81,1.45,1.81,1.26,1.81,1.27,1.81.72.72.54.9.53.91.55.91.54.72.55.9.36.72.36.91.36.72.36.72.19.72.19.72v.72l.17.55c-.36,18.46-8.52,29.67-10.31,35.83,0,0-14.66-11.76-17.2-25.15-1.43-6.93.01-27.56,11.59-37.7h0ZM1858.1,582.34l.19-.54.17-.55.19-.54.36-.55.19-.72.36-.54.17-.72.36-.72.36-.72.36-.9.36-.72.36-.72.72-1.64.91-1.62.9-1.81.9-1.64.55-.72.36-.72.54-.72.55-.72.54-.72.53-.72.55-.72.54-.55.55-.55.54-.54.55-.55.53-.55s8.15-23.53-17.55-38c0,0-10.68,13.94-13.39,27.33-2.9,13.22,11.22,21.18,17.73,33.13h0ZM1825.89,522.62l-.91,1.08-.9.92-.72,1.08-.9,1.09-.91.9-.9,1.08-1.08,1.08-.92.92-.9.91-.9,1.08-.55.36-.54.36-.36.55-.55.36-.36.36-.53.36-.36.36-.54.19-.36.36-.55.36-.36.18-.53.19s-1.64,10.5-.55,17.55c1.27,10.32,7.96,20.99,10.86,28.95,0,0,11.22-14.84,12.48-23.53,1.27-8.69,1.09-15.74,1.45-19.91,0-.03-6.15-10.17-9.6-17.21h0ZM1796.04,573.29l-.36-.54-.36-.55-.36-.72-.36-.55-.55-.91-.36-.72-.53-.92-.55-.9-.54-1.08-.55-.92-.54-1.08-.53-1.27-.55-1.08-.54-1.27-.72-1.08-.55-1.26-1.08-2.53-1.08-2.71-.92-2.72-.36-1.26-.53-1.27-.36-1.45-.36-1.27-.19-1.26-.36-1.45-.19-1.27-.19-1.26v-1.27l-.17-1.27s12.84,6.87,23.53,1.81c0,0,1.27,17.01-.72,22.63-1.62,4.73-3.79,7.46-9.03,11.44h0ZM1798.94,576.91l.36-.19.19-.17.17-.36.36-.19.19-.19.36-.19.19-.36.36-.19.36-.36.17-.19.72-.72.55-.55.72-.72.72-.55.54-.72.72-.55.36-.36.17-.18.36-.36.36-.36.19-.19.17-.36.36-.19.19-.36.17-.19.19-.36s8.5,15.56,9.94,20.1c0,0-4.15.91-8.86-2.35-4.53-3.2-5.8-4.11-10.32-8.63h0ZM1838.2,567.67l-.17.19v.19l-.19.36v.19l-.17.36-.19.19-.17.36-.19.36-.36.72-.36.72-.55.9-.53.72-.55.92-.54,1.08-.72.91-.55,1.08-.72.92-.72,1.08-1.45,2-1.45,2.17-.72.92-.72,1.08-.53.9-.72.91-.72.91-.55.91-.53.72-.72.72-.36.72-.54.53-.19.19-.17.36-.19.19-.17.19-.19.19-.17.19-.19.19-.17.18s1.08,6.87,6.15,16.65c5.07,9.96,12.11,16.84,15.92,20.27,0,0,8.32-14.66,10.86-20.99,2.9-7.42,2.53-14.84,1.26-17.56-2.9-6.42-12.66-15.65-17.01-23.8h0ZM1858.65,617.27l.17.72.36.53.36.72.36.55.54.72.36.72.55.55.36.72.53.72.55.91,1.08,1.45.92,1.62,1.08,1.45,1.09,1.62,1.08,1.62.92,1.62.36.91.53.72.36.9.36.72.36.72.36.92.19.72.17.9.36.72v.72c.97,5.22.47,10.61-1.45,15.56-1.81,4.15-7.24,12.48-10.86,18.82,0,0-12.48-11.76-15.21-20.08-1.98-6.34-1.25-15.2,1.81-20.99,2.9-5.62,9.41-11.58,12.31-17.55h0ZM1823.36,615.63l.36.72.36.72.36.53.36.72.36.72.36.55.9,1.26.91,1.45.9,1.27,1.08,1.27.9,1.26.91,1.26.9,1.27.9,1.26.36.54.36.72.36.55.36.72.36.54.36.53.19.72.36.55.17.55.19.72c1.98,7.07,2.71,11.76-.72,20.27-3.26,7.42-6.87,11.76-8.15,16.29,0,0-10.14-13.03-11.94-18.46-1.62-5.62-2.17-14.48-.17-20.08,2.19-5.79,5.81-13.22,8.34-18.46h0ZM1873.13,665.58v.18h-.19v.17l-.17.19-.19.19-.17.17-.17.18-.19.36-.17.19-.36.36-.19.36-.36.36-.54.72-.55.91-.72.91-.72.9-.72,1.08-.72,1.09-.91,1.08-.72,1.28-.9,1.26-.72,1.26-.9,1.27-.72,1.26-.72,1.45-.72,1.26-.72,1.27-.72,1.45-.54,1.26-.55,1.26-.53,1.45-.36,1.27-.55,1.26-.17,1.08-.19,1.26-.17.53v1.64c.54,13.94,9.77,22.99,11.03,31.67,0,0,9.24-10.31,12.66-17.18,3.8-7.96,6.88-14.48,5.79-23.33-1.1-8.86-3.44-14.48-12.49-23.34h0ZM1841.09,663.41l.17.36.36.55.36.55.36.53.36.54.36.72.36.72.36.72.55.72.36.72.36.9.54.72.36.9.36.92.72,1.81.36,1.08.36.92.36.91.36.9.17,1.08.36.9.19.91.17.9.19,1.08.17.92v3.42l-.17.91-.19.72c-2.17,8.15-10.86,19.55-13.75,24.61,0,0-6.88-14.11-8.33-20.63-1.43-6.5-.16-17,13.77-30.02h0ZM2015.18,316.32v-.19l-.19-.19v-.17l-.17-.19-.19-.17-.17-.19h-.36l-.36-.19-.36-.19-.36-.19h-.36l-.55-.19-.36-.19-.54-.19h-.53l-.72-.19h-.55l-.72-.17-.54-.19h-.72l-.72-.19h-1.45l-.9-.19h-1.64l-.72-.19h-4.52c-9.77,0-17.73,1.45-17.73,3.26s7.97,3.07,17.73,3.07c9.76.09,17.72-1.17,17.72-2.98h0ZM1894.29,261.86l.17-.72.19-.92.19-.91.17-.92.36-.9.36-.91.36-1.09.36-1.08.36-1.09.36-1.09.9-2.17.9-2.35.92-2.36.9-2.17.91-2.36.36-1.08.53-1.09.36-1.08.19-1.08.36-.92.36-1.08.17-.92.17-.91.19-.92.17-.9v-1.45c0-5.79-4.71-10.5-10.5-10.5s-10.49,4.71-10.49,10.5c0,7.42,9.22,24.42,10.31,32.39h.39v.05ZM1923.61,278.87l.9-2.17.91-1.98.72-1.81.92-1.98.72-1.81.72-1.98.72-1.81.72-1.64.72-1.81.55-1.64.72-1.63.54-1.62.72-1.63.55-1.45.54-1.45.55-1.45.36-1.45.55-1.26.36-1.27.36-1.27.36-1.08.36-1.09.36-1.08.17-1.08.36-.92.19-.9.17-.92v-.72l.19-.72v-1.81c0-3.26-3.98-5.62-7.43-6.7-3.98-1.08-7.07-1.45-9.6.36-4.71,3.79-9.05,33.11-10.86,45.43,4.71.91,7.6,1.63,12.84,4.36h0ZM1906.96,274.15l-.55-.19h-1.26l-.92-.19h-2.7l-.9-.19h-.72c1.45-11.76,5.43-31.12,7.79-38.9,2.53-7.79,5.42-13.21,10.49-14.66,0,0-3.79,10.68-5.97,21.71-2.19,11.08-3.82,21.92-5.27,32.41h0ZM1915.47,300.04h.19v.19h.17v.17h.19l.17.36.36.36.36.19.36.36.53.53.36.36.55.54.54.53.72.36.55.55.72.54.72.55.72.72.72.53.91.55.72.54.9.55.72.55.9.53.91.55.9.55.92.36.9.55.9.36,1.08.36.92.36.9.36.9.19s-4.14-10.89-20.43-13.23h0Z"/>
    <path class="cls-1" d="M1907.15,294.97h1.09l.72-.19h2.17l.72.19h1.8l.91.19h.9l.91.19.9.19h1.08l.9.19,1.09.17.91.36,1.08.19,1.09.19.92.36,1.08.36,1.08.19.92.36,1.08.36,1.08.36.9.54.9.36,1.09.55.91.54.9.36.72.72.9.53c8.87,6.15,11.77,11.39,14.84,17.01,0,0-15.93,1.26-29.85-6.87-6.69-4.01-12.48-13.06-13.74-17.4h0ZM1924.12,319.73s1.81,6.6,9.94,10.41c0,0-4.43.27-8.6,4.07,0,0,2.71,5.24,9.94,8.14,0,0-13.3,13.58-27.59,12.66,0,0,6.6,8.52,21.27,5.43,14.66-3.26,19.01-11.41,21.71-14.48,0,0-1.81,7.77-.91,10.86,0,0,6.24-.45,11.31-6.79,0,0-3.79,6.33-4.53,11.76,0,0,4.07.08,11.31-4.07,0,0-1.62,3.9-1.81,8.6,0,0,17.01-5.52,25.34-13.12v5.85l-.45.45v1.8s26.06-2.36,28.04-40.72c0,0-17.1,6.32-34.83,5.43-17.35-.84-49.83-1.39-60.14-6.27h0ZM1973.43,334.2c13.75,1.81,30.32.91,30.32.91v.9h-.45v.92l-.45.91v.92l-.45.45v.9l-.45.45v.9h-.45v.45l-.45.45v.45l-.45.45-.45.45v.45h-.45l-.45.45v.45h-.49l-.45.45v.45h-.45l-.45.45-.45.45c-.9-11.22-23.53-11.31-23.53-11.31v-1.32h-.01ZM2023.5,323.2l-.19,1.64-.17,1.45-.19,1.64-.17,1.45-.36,1.62-.19,1.45-.36,1.45-.36,1.45-.36,1.45-.36,1.45-.54,1.26-.36,1.27-.53,1.27-.36,1.27-.55,1.08-.54,1.09s10.31-7.6,12.84-14.29c2.54-6.72,3.08-11.07-7.24-7.99h0ZM2045.36,330.58l-.91.45h-.9l-.92.45h-.9c-3.79,11.58-16.73,15.39-23.08,18.09-6.7,3.26-13.11,10.86-13.11,10.86,10.5,2.36,15.39,4.98,15.39,4.98,20.08-13.93,36.64.45,36.64.45,10.86-6.34,13.11-21.18,7.69-28.95l-.9-.92-.45-.9-.45-.45-.91-.45-.45-.45-.9-.45-.45-.45-.9-.45-.9-.45-.45-.45h-.9l-.9-.45h-.91l-.45-.45h-10v-.03ZM2044,345.95h1.35v.45h.9v.45h.45l.45.45v.45h.45v.45h.45v1.8l.45.45c0,2.36-2.17,4.53-4.53,4.53s-4.07-2.17-4.07-4.53c.04-2.32,1.77-4.49,4.11-4.49h0ZM2003.6,363.01h-.19v.19h-.17v.17l-.19.19-.17.36-.36.19-.17.36-.36.55-.36.36-.19.36-.54.54-.36.55-.36.36-.55.55-.36.53-.53.72-.36.54-1.08,1.08-1.09,1.08-.9,1.28-.55.55-.54.53-.55.55-.53.54-.54.36-.55.55-.53.36-.55.53s26.97-.36,33.84,23.16c0,0,9.24-14.48,2.53-23.71-7.25-9.97-14.13-11.41-23.73-13.41h0Z"/>
    <path class="cls-1" d="M1973.92,368.61h-.17v.19h-.55v.19h-.72l-.17.19-.36.19h-.55l-.36.17-.36.19h-.55l-.36.19-.53.19-.92.17-1.08.36-.9.17-.54.19-.36.19-.55.19h-.36l-.53.19-.36.19h-.36l-.36.19h-.36l-.19.19s-.17-5.07.19-7.42c-2.71.54-5.98,1.45-8.87,1.81,0,0-8.5,19.18-15.37,26.95,0,0-.36,4.53,3.43,10.86,0,0,4.9-11.22,13.75-20.63,4.9-5.14,8.15-7.86,18.46-15.1h0ZM1996.91,364.63h-.36l-.36.19h-.36l-.54.19-.55.17-.54.19-.55.19-.72.17-.72.36-.72.17-.72.19-.72.36-.92.19-.72.36-.91.36-.9.36-1.81.72-1.81.72-1.62.72-1.81.72-.9.55-.72.36-.91.36-.72.53-.72.36-.72.36-.72.54-.55.36c-8.5,6.15-14.3,13.03-13.56,25.15,0,0,6.87-9.58,14.48-13.93,5.97-3.27,16.82-12.68,22.44-21.01h0ZM1996.72,276.69h-.55l-.17.19h-.91l-.36.19h-.54l-.36.19h-.36l-.17.19h-.36l-.36.19-.36.19-.19.17-.36.19-.17.19-.36.19-.19.19-.36.19-.17.19-.19.19-.17.36-.19.19-.17.36-.19.17v.38l-.17.17v.57l-.19.19v.57c0,4.15,6.52,14.11,8.32,18.46,1.81-4.34,8.14-14.29,8.14-18.46s-4.9-5.43-7.6-5.43h-1.26v-.15ZM2002.34,309.08l.17-.72v-.53l.17-.72.19-.72v-.72l.17-.72.19-.92.17-.72.19-.91.17-.9.36-1.81.36-1.81.36-2,.55-1.81.17-.9.36-.91.19-.72.17-.92.36-.72.19-.72.36-.72.36-.72.19-.72.36-.54.36-.55.17-.55.36-.36.36-.36c3.43-3.08,8.51-3.45,11.04-3.26s5.07,2.72,4.16,6.15c-1.09,3.43-12.31,20.27-13.76,22.25-2.53-.33-2.17-.33-8.5-.69h0ZM1992.38,309.08v-.72l-.17-.53-.19-.72-.17-.72v-.72l-.19-.72-.17-.92-.19-.72-.17-.91-.19-.9-.36-1.81-.36-1.81-.53-2-.36-1.81-.36-.9-.17-.91-.19-.72-.36-.92-.17-.72-.36-.72-.19-.72-.36-.72-.36-.72-.17-.54-.36-.55-.36-.55-.19-.36-.36-.36c-3.43-3.08-8.32-3.45-11.03-3.26-2.35.19-5.07,2.72-3.98,6.15.9,3.43,12.11,20.27,13.75,22.25,2.52-.33,1.98-.33,8.31-.69h0ZM1985.33,256.43h8.5v-9.6h7.24v9.6h8.69v6.15h-8.69v11.21h-7.24v-11.21h-8.5v-6.15ZM1880.54,199.42h8.87v-9.58h6.88v9.58h8.86v6.15h-8.86v11.22h-6.87v-11.22h-8.87v-6.15ZM2090.82,318.5v-1.26l-.17-.72v-2.17l-.19-.19v-1.08c-.72-4.71-.9-8.86-.36-12.12,6.34,2.36,10.69,3.99,19.18,17.91,0,0-13.75-8.52-18.46-.36Z"/>
    <path class="cls-1" d="M2078.88,340.74l-.17-.36v-1.27l-.17-.55v-.54l-.19-.53v-.72l-.17-.53v-.72l-.19-.55-.17-.72-.19-.72-.17-.72-.19-.91-.17-.72-.36-1.45-.36-1.63-.36-1.64-.55-1.62-.36-1.63-.53-1.64-.54-1.62-.19-.72-.36-.72c-3.43-9.42-1.45-23.16,2.71-31.3s6.52-15.75,5.62-24.08c0,0,8.32,2.72,12.84,5.62.72,9.77-4.9,19.37-7.42,24.8-3.25,6.52-2.72,14.84-1.81,20.08,1.07,8.89-.74,18.3-6.53,27.16h0ZM2077.98,266.74v-3.69l-.17-.19v-.91l-.19-.19v-.36s-13.03-12.48-23.72-14.66c-6.7-1.45-11.03,1.64-12.84,3.26,0,0,3.62-.36,9.41,4.34,5.79,4.53,12.84,10.32,18.28,11.77,5.42,1.36,6.5,1,9.22.63h0ZM2039.79,251.17l-.91.92-.9.91-.72.9-.9.92-.72.91-.72.91-.36.36-.36.53-.36.36-.19.54-.36.55-.36.36-.19.55-.17.36-.36.36-.19.55-.17.36-.19.54-.17.36v.54l-.19.36-.17.55v1.64c0,4.53,5.43,16.1,8.14,20.44,2.72,4.34,7.07,10.13,6.52,17.01-.36,3.62-2.71,7.24-5.62,10.13,0,0,15.75-3.79,17.54-13.39,1.81-8.69-1.98-14.84-4.53-19.72-2.35-4.53-9.58-15.03-11.39-19.37-1.61-4.01-2.5-7.27-1.97-9.44h0ZM1948.05,360.48l-.72,1.98-.72,2.17-.55,1.99-.9,2-.72,1.98-.72,2-.9,2-.91,1.81-.9,1.81-.92,1.98-.9,1.81-1.08,1.63-.9,1.81-.91,1.63-1.08,1.62-.9,1.45c-4.89,7.42-7.96,19.73-7.24,23.89,0,0-7.24-15.75-3.62-26.79,2.88-8.68,10.48-21.35,24.6-26.78h0ZM1930.31,364.1h-1.27l-.36.19h-1.98l-.55.19h-1.26l-.53.19h-.72l-.55.19h-.72l-.54.19-.72.17-.72.19-.54.19h-.72l-.72.36-.55.19-.54.17-.72.19-.53.36-.55.19-.54.36-.55.19c-6.34,4.34-12.66,13.58-14.84,24.8,0,0,10.86-1.81,16.29-7.24,5.22-5.33,11.93-13.46,14.46-21.06h0ZM1986.23,383.64h1.26l.19.17h.54l.36.19h.72l.36.19h.36l.36.17.72.19h.72l.72.19.72.19.72.19.36.19h.36l.36.19h.36l.19.19h.53l.36.19s-9.22,2.71-13.94,6.34c-3.79,3.26-7.24,8.33-8.69,16.65-2.35,11.75-9.22,24.42-11.39,28.23l-.72-.17c1.26-8.15-3.79-24.8-5.07-27.14,0,0,7.24-4.71,10.67-9.42,2.37-3.52,6.72-9.31,18.84-16.72h0ZM1938.45,408.79l-.36.55-.17.55-.36.72-.36.72-.36.55-.36.72-.36.91-.36.72-.36.72-.36.91-.72,1.64-.72,1.63-.36.9-.36.91-.36,1.08-.17.92-.36.91-.19.9-.17,1.08-.19.92-.17,1.08-.19,1.08v5.07l.19,1.08.36,1.09.17,1.08c3.43,11.39,10.86,16.29,15.56,25.87,0,0,3.62-17.37,2.71-30.76-.72-13.62-5.6-18.69-11.58-23.58h0ZM1894.29,440.47v-.55l.17-.72.36-.72.17-.91.53-.72.36-.91.55-.91.54-.92.55-1.08.53-.9.72-1.09.72-1.08.72-1.09.53-1.09,1.45-2.17,1.45-2.17.72-1.09.72-1.27.53-1.08.72-1.09.55-1.08.54-1.09.53-1.09.36-.9.36-1.09.36-.91.19-1.08.17-.9v-1.64c-.9-8.69-12.31-14.84-15.2-16.11h-.17c-2.9,1.27-14.48,7.42-15.2,16.11s14.66,24.79,15.03,31.3h.39v.05ZM1917.65,409.15l-.17.19v.38l-.19.19-.19.17v.19l-.17.17-.17.36-.19.36-.17.54-.36.72-.55.91-.36.92-.54.9-.36,1.08-.55.92-.54,1.08-.55,1.26-.53,1.08-.54,1.09-.55,1.27-1.08,2.53-1.09,2.36-.54,1.26-.36,1.08-.53,1.09-.36,1.27-.55,1.08-.36.92-.36,1.08-.17.92-.36.91-.19.72c-1.81,8.15-.17,13.39,3.45,18.27,3.79,4.89,9.94,10.32,15.56,20.46,0,0,6.69-8.69,7.42-13.21.72-4.7-.36-15.56-1.99-20.09-1.29-4.57-6.9-19.41-11.78-34.44h0ZM1894.29,489.69l.9-.92.91-.91.9-.9.72-.91.91-.91.72-.91.9-.92.72-1.08.53-.9.72-.92.19-.53.36-.36.36-.55.17-.36.17-.53.36-.36.17-.36.17-.55.19-.36.17-.36.19-.36.17-.36c1.27-3.81,1.63-9.24-1.62-13.39-3.79-4.9-8.69-10.5-9.04-15.01h-.36c-.17,4.53-5.07,10.14-9.05,15.01-3.26,4.15-2.9,9.58-1.45,13.39,1.45,3.62,5.79,9.96,10.69,14.29h.2v.05ZM1912.22,475.57l.17.19.17.17.19.19.19.19.17.36.36.36.36.54.53.55.55.72.54.55.55.72.72.72.53.92.72.72.72.9.53.72,1.45,1.81,1.27,1.62.72.91.72.91.55.91.54.72.72.9.55.72.53.72.36.72.54.72.36.72.36.53.36.54.19.36v.19l.17.19v.19c1.81,4.53,4.53,12.66.72,18.46-3.79,5.79-12.84,15.03-20.63,19.01,0,0,8.51-13.2,7.6-24.07-.55-7.05-5.79-13.21-6.87-17.37-1.07-4.2-.35-11.44,2.74-17.96h0ZM1936.64,467.24l-.17.19-.19.36-.17.19-.19.36-.17.36-.36.36-.19.36-.17.36-.17.55-.19.36-.36.55-.17.36-.19.55-.17.36-.55,1.08-.36,1.09-.36,1.08-.36,1.09-.36,1.08-.36,1.09-.17.72v.55l-.19.54v.55l-.17.72v.55c-.36,6.15.72,11.22,4.16,20.44,4.15,11.39,10.67,24.25,13.94,30.04,0,0,5.79-8.5,9.05-15.92,0,0-9.24-12.67-13.21-21.53-4.54-10.55-6.35-20.33-8.17-28.46h0ZM1940.98,462.18v.36l.17.55v.55l.19.72.17.72.19,1.08.17,1.08.19,1.28.36,1.26.36,1.45.36,1.64.36,1.62.54,1.63.53,1.81.55,1.98.53,1.81.72,1.98.72,2.17.72,1.98.9,2.17.91,2.17.9,2.17,1.09,2.17,1.08,2.17,1.09,2.17,1.26,2.17,1.27,2.35,1.45,2.17,1.45,1.98,1.45,2.17,1.62,2.17c11.76,14.84,21.35,20.1,27.69,20.1,9.58,0,19.18-8.15,22.44-17.2,3.08-9.05,2.17-23.34-3.98-28.23,0,0-5.79,17.73-18.09,18.46-13.73.74-31.65-14.82-49.38-44.86h0Z"/>
    <path class="cls-1" d="M1955.29,449.87l-.19.55-.17.54v.55l-.19.54-.17.55v.55l-.19,1.27-.17,1.26-.19,1.27v6.89l.19,1.45.17,1.45.19,1.45.36,1.45.36,1.45c1.45,5.79,4.89,13.39,11.75,17.73,5.79,3.62,19.72,4.53,24.98-8.69,0-.04-25.33,1.96-36.73-30.26h0ZM1894.12,537.82l.72-.36.53-.36.72-.19.53-.36.72-.36.55-.36.36-.19.36-.36.36-.19.19-.19.36-.36.36-.19.36-.36.36-.19.36-.36.36-.36.17-.36.36-.36.36-.36.36-.54.36-.36.36-.55.36-.36.36-.53.36-.55.54-.72c3.07-4.88,6.15-13.93,4.52-20.44-2.17-7.96-6.69-11.22-9.22-16.29-1.98,1.99-3.26,3.43-5.98,5.07h-.17c-2.53-1.62-3.98-3.07-6.15-5.07-2.71,5.07-6.87,8.32-9.04,16.29-1.62,6.51,1.27,15.56,4.53,20.44,3.98,6.56,7.07,7.64,10.69,9.45h0ZM1894.12,587.58l.17-.72.36-.72.36-.91.36-.91.54-.91.55-.91.53-.9.72-.91.72-1.08.72-1.09.72-.92.72-1.08,1.45-2.17,1.62-2.17,1.45-2.17.72-1.09.72-1.08.72-1.09.54-.92.55-1.08.54-1.08.53-.9.36-1.08.36-.92.36-.91.19-.9v-2.36c-2.35-12.48-10.32-9.96-16.47-15.03h-.17c-6.15,5.07-14.31,2.53-16.48,15.03-1.59,8.02,14.69,23.22,16.51,31h0ZM1913.67,569.31l-.17.72-.53.91-.36.91-.54.9-.53.92-.55.91-.54.91-.55.91-1.26,1.81-1.45,1.81-1.26,1.81-1.45,1.81-1.26,1.81-.55.72-.72.9-.53.91-.55.91-.54.72-.36.9-.53.72-.36.91-.36.72-.19.72-.17.72-.19.72-.17.72v.55c.36,18.46,8.32,29.67,10.14,35.83,0,0,14.84-11.76,17.37-25.15,1.39-6.93-.23-27.56-11.81-37.7h0ZM1930.31,582.34l-.19-.54-.17-.55-.19-.54-.36-.55-.17-.72-.36-.54-.19-.72-.36-.72-.36-.72-.36-.9-.36-.72-.36-.72-.72-1.64-.9-1.62-.9-1.81-.92-1.64-.53-.72-.55-.72-.54-.72-.53-.72-.55-.72-.54-.72-.55-.72-.53-.55-.55-.55-.54-.54-.54-.55-.72-.55s-7.97-23.53,17.73-38c0,0,10.67,13.94,13.58,27.33,2.86,13.22-11.25,21.18-17.77,33.13h0ZM1962.53,522.62l.72,1.08.9.92.92,1.08.9,1.09.9.9.92,1.08.9,1.08.91.92,1.08.91.9,1.08.36.36.54.36.55.55.36.36.54.36.36.36.55.36.36.19.54.36.36.36.53.18.36.19s1.64,10.5.72,17.55c-1.26,10.32-8.14,20.99-10.86,28.95,0,0-11.39-14.84-12.48-23.53-1.45-8.69-1.26-15.74-1.62-19.91.02-.03,6.34-10.17,9.79-17.21h0ZM1992.2,573.29l.36-.54.36-.55.36-.72.53-.55.36-.91.54-.72.55-.92.36-.9.53-1.08.55-.92.54-1.08.72-1.27.54-1.08.55-1.27.54-1.08.55-1.26,1.08-2.53,1.09-2.71.9-2.72.54-1.26.36-1.27.36-1.45.36-1.27.36-1.26.19-1.45.17-1.27.19-1.26v-2.54s-12.67,6.87-23.16,1.81c0,0-1.45,17.01.55,22.63,1.63,4.73,4,7.46,9.06,11.44h0ZM1989.31,576.91l-.19-.19-.17-.17-.36-.36-.17-.19-.36-.19-.19-.19-.36-.36-.17-.19-.36-.36-.36-.19-.19-.36-.36-.36-.72-.55-.72-.72-.54-.55-.72-.72-.53-.55-.36-.36-.36-.18-.19-.36-.36-.36-.36-.19-.17-.36-.19-.19-.36-.36-.17-.19-.19-.36s-8.32,15.56-9.77,20.1c0,0,4.15.91,8.69-2.35,4.69-3.2,5.77-4.11,10.31-8.63h0ZM1950.22,567.67l.19.19v.19l.17.36v.19l.19.36.17.19v.36l.19.36.36.72.54.72.36.9.55.72.53.92.72,1.08.54.91.72,1.08.72.92.55,1.08,1.45,2,1.45,2.17.72.92.72,1.08.72.9.54.91.72.91.55.91.72.72.53.72.55.72.36.53.17.19.36.36.19.19.17.19.17.19v.19l.19.19.17.18s-1.08,6.87-5.97,16.65c-5.25,9.96-12.13,16.84-15.92,20.27,0,0-8.32-14.66-10.86-20.99-2.9-7.42-2.72-14.84-1.27-17.56,2.72-6.42,12.49-15.65,17.02-23.8ZM1894.29,680.06l.17-.55.19-.54.19-.53.17-.55.36-.36.17-.54.36-.55.36-.55.36-.53.36-.55.55-.72.36-.55.9-1.08.9-1.28.91-1.26,1.08-1.26.9-1.45.9-1.45.55-.72.36-.72.54-.72.36-.72.36-.72.36-.9.36-.72.36-.9c1.81-5.24,1.81-11.58-.36-15.92-2.35-4.9-11.22-17.2-12.31-20.63-1.08,3.45-9.77,15.75-12.31,20.63-2.17,4.34-2.17,10.67-.19,15.92,3.26,9.05,11.04,15.21,12.31,20.44h.39ZM1929.59,617.27l-.19.72-.36.53-.36.72-.36.55-.36.72-.54.72-.36.55-.55.72-.53.72-.54.91-.91,1.45-1.08,1.62-1.09,1.45-1.08,1.62-.92,1.62-.9,1.62-.55.91-.36.72-.36.9-.53.72-.17.72-.36.92-.36.72-.19.9-.17.72-.19.72c-1.08,6.15,0,11.22,1.45,15.56,1.81,4.15,7.24,12.48,10.86,18.82,0,0,12.48-11.76,15.2-20.08,1.98-6.34,1.45-15.2-1.62-20.99-3.08-5.62-9.59-11.58-12.49-17.55h0ZM1965.06,615.63l-.36.72-.36.72-.36.53-.36.72-.36.72-.36.55-.9,1.26-.92,1.45-1.08,1.27-.9,1.27-1.09,1.26-.9,1.26-.92,1.27-.9,1.26-.36.54-.36.72-.36.55-.36.72-.36.54-.36.53-.17.72-.19.55-.36.55-.17.72c-2,7.07-2.53,11.76.9,20.27,3.07,7.42,6.87,11.76,8.15,16.29,0,0,10.14-13.03,11.76-18.46,1.81-5.62,2.35-14.48.17-20.08-2-5.79-5.62-13.22-8.15-18.46h0ZM1894.12,780.48l.17-.72.17-.72.19-.72.36-.9.36-.9.36-.91.36-1.08.53-1.26.55-1.08.54-1.27.55-1.26.54-1.45.72-1.45.54-1.45.72-1.45.55-1.62.72-1.45.72-1.62.54-1.81.55-1.62.72-1.8.55-1.81.53-1.81.55-1.81.54-1.81.36-1.81.36-2,.36-1.81.36-2,.19-1.98.17-1.81v-1.98c.54-10.5-9.05-27.15-14.3-33.3h-.36c-5.25,6.15-14.48,22.8-14.3,33.3.75,20.77,13.96,40.68,14.51,47.19h0ZM1915.29,665.58v.18h.17v.17l.19.19.17.19.19.17.17.18.19.36.17.19.36.36.17.36.19.36.72.72.54.91.72.91.72.9.72,1.08.72,1.09.9,1.08.72,1.28.72,1.26.91,1.26.72,1.27.9,1.26.72,1.45.72,1.26.72,1.27.54,1.45.72,1.26.55,1.26.54,1.45.36,1.27.36,1.26.36,1.08.17,1.26v2.17c-.36,13.94-9.58,22.99-11.03,31.67,0,0-9.05-10.31-12.48-17.18-3.98-7.96-7.07-14.48-5.79-23.33.92-8.86,3.29-14.48,12.51-23.34h0ZM1947.32,663.41l-.36.36-.19.55-.36.55-.36.53-.36.54-.36.72-.36.72-.54.72-.36.72-.36.72-.36.9-.54.72-.36.9-.36.92-.91,1.81-.36,1.08-.36.92-.36.91-.17.9-.36,1.08-.17.9-.36.91-.19.9-.17,1.08v.92l-.19.9v1.62l.19.9v.91l.36.72c1.98,8.15,10.67,19.55,13.56,24.61,0,0,6.87-14.11,8.5-20.63,1.45-6.5.17-17-13.76-30.02Z"/>
    <path class="cls-1" d="M1906.07,814.14l.19-1.45.17-1.45.19-1.45.17-1.45.36-1.45.19-1.27.36-1.26.36-1.27.55-1.27.36-1.26.36-1.08.54-1.26.55-1.08.36-1.09,1.09-2.17.9-2,1.08-1.98.9-1.81.91-1.81.36-.91.36-.91.36-.9.36-.9.36-.72.17-.9.17-.72.19-.72c1.81-9.42,1.26-18.29-6.15-29.14-4.42,15.43-10.18,30.45-17.2,44.88-.19.36-.36.54-.53.9,0-.36-.19-.55-.36-.9-5.07-10.13-11.58-24.8-17.37-44.88-7.24,10.86-7.96,19.71-6.15,29.14,1.64,8.32,10.86,18.27,11.94,34.56,1.08,16.47-17.37,22.63-17.37,22.63,6.34,2.17,13.39,3.26,24.61-7.42,1.98-2,3.62-3.98,4.71-6.34,1.26,2.35,2.9,4.34,4.71,6.34,11.39,10.67,18.46,9.58,24.61,7.41,0,0-18.29-6.15-17.37-22.63h0ZM1847.97,705.39l.19.53.36.72.17.55.19.72.36.72.36.72.17.72.36.72.53,1.45.72,1.45.72,1.64.55,1.45.72,1.63.36.72.17.72.36.53.36.72.17.72.19.55.36.72.17.55.19.53.17.36.19.54.17.36v.55l.19.17c1.45,6.52-.55,14.48-12.31,22.8,0,0-7.6-5.43-10.67-12.48-2.9-6.52-1.09-11.22,1.81-14.48,2.9-3.63,9.96-11.42,12.66-16.66h0ZM1872.94,729.64v1.27l-.17.72v1.27l-.19.9v.72l-.17.9-.17.91-.19,1.08-.17,1.09-.19,1.08-.17,1.09-.19,1.09-.17,1.08-.55,2.35-.54,2.35-.72,2.53-.36,1.08-.19,1.08-.53,1.26-.36,1.08-.36,1.09-.36,1.09-.53,1.08-.36.9-.55.92-.36.9c-7.42,12.85-18.27,22.63-27.87,22.63-8.68,0-10.49-5.24-15.01-7.42,0,0,2.17-11.21,12.12-14.11,12.11-3.79,30.75-18.27,38.35-32.02h0Z"/>
    <path class="cls-1" d="M1841.28,753.17l-.36-.36-.36-.18-.72-.55-.36-.36-.36-.19-.55-.36-.36-.17-.36-.36-.36-.36-.17-.18-.19-.19-.17-.19-.19-.18-.36-.18-.19-.19-.17-.19-.19-.18-.17-.36-.36-.19-.19-.17-.17-.36s-9.24,3.43-17.2,8.69c-7.6,5.25-15.21,14.11-19.18,18.64,0,0,11.39,2.9,18.82-.36,0,0,2.71-11.03,10.86-15.93,2-1.1,7.62-2.91,13.04-5.62h0ZM1831.51,743.76l-.19-.18-.17-.36-.19-.19-.17-.36-.19-.36-.17-.36-.19-.36-.17-.36-.19-.36-.36-.36-.17-.55-.19-.36-.17-.36-.19-.53-.17-.54-.19-.36-.36-.53-.17-.55v-.55l-.19-.54-.17-.53-.17-.55-.19-.72v-.54l-.17-.53v-1.45l-.19-.55v-1.45l.19-.72v-.72s-16.29,10.32-21.18,14.11c-4.89,3.98-15.01,14.48-17.37,17.92,0,0,12.31-2.72,21.89-5.79,10.32-3.46,17.37-8.17,21.18-10.34h0ZM1804,761.3l-.72.36-.91.17-1.08.36-.9.36-1.08.19-1.09.36-1.26.18-1.08.36-1.26.36-1.27.19-2.53.53-2.54.72-2.71.55-2.53.54-2.71.53-2.53.55-1.09.18-1.26.36-1.09.18-1.26.36-1.08.19-.92.17-1.08.36-.9.19-.9.19-.72.36c-8.32,2.54-14.3,6.52-22.08,15.21,0,0,11.94,3.25,18.46,5.42,0,0,10.31-7.06,21.53-11.22,7.39-2.88,10.82-10.67,18.61-18.27h0ZM1785.72,819.4l.36-.36.36-.36.36-.53.36-.36.19-.19.17-.36.17-.19.19-.19v-.36l.17-.19.19-.36.17-.17v-.36l.19-.18v-.72l.17-.17v-2.17l-.17-.36v-.36l-.19-.55v-.36l-.17-.55c-1.27-3.43-8.51-7.43-12.84-9.41-7.07-3.43-26.6-8.69-32.94-10.67,0,0-3.26,3.79-4.88,7.79-.91,1.62.17,3.07,2.9,3.43,5.62,1.08,18.65-1.45,21.89.72,3.43,2.17,2.17,5.24,2.17,8.15,0,0,5.98-3.62,9.77-2.71,5.24,1.07,8.5,3.61,11.39,12.12h0ZM1768.35,792.26h.36l.17.19h.19l.36.17h.36l.36.18.36.19h.36l.36.19.53.18.36.18.55.19.54.19.55.18.54.36.53.19.55.17.72.36.54.19.72.36.54.36.72.19.72.36.55.36.72.36.72.36.72.36.53.36.72.53.72.36.72.36s3.26-1.26,4.9-4.34c1.62-2.9,8.32-12.86,14.48-14.12,0,0-5.25-.36-8.32-1.45,0,0-6.15,1.62-10.86,3.62-4.5,1.62-10.12,4.52-16.63,8.86h0ZM1818.84,779.76h-.19l-.36.18-.19.19h-.36l-.17.19h-.36l-.19.18h-.36l-.17.18h-.55l-.17.19h-.55l-.17.19h-.91l-.36.18h-1.09l-.36.18h-1.27s-17.18,11.94-19.18,23.71c-1.81,10.31,3.62,15.2,6.15,16.47,2.71,1.45,14.66,6.15,22.44-9.77,0,0-13.2,4.34-17.01-1.98-3.43-6.52,2.35-15.93,5.98-18.46,4.9-3.62,13.39-6.15,18.63-5.07.01-.02-4.33-4-9.21-6.53h0Z"/>
    <path class="cls-1" d="M1706.09,916.4l.72-3.26.9-3.26.91-3.43.36-1.62.54-1.62.53-1.63.55-1.81.55-1.62.53-1.62.72-1.62.53-1.64.72-1.63.72-1.62c7.77-16.47,26.97-60.44,66.77-68.04,3.62-.9-4.35-10.13-7.97-9.6-3.62.36-10.67,5.07-13.75,7.07,0,0,0-9.41-.19-11.03,0-1.62-1.45-2.35-3.07-2.35-1.45.18-11.22,0-14.11,3.62-9.24,10.5-24.44,38.72-33.12,59.72s-14.66,27.51-23.89,24.25c-9.05-3.25-14.48-13.75-30.58-10.49-5.43,1.09-11.58,4.9-16.47,10.32,1.45,2.53,3.07,5.79,10.5,5.79s21.88,3.07,29.67,8.51c8.01,5.54,16.31,7.54,27.9,8.63h0ZM1864.98,780.31l.19,1.26.17,1.26.36,1.27.36,1.26.36,1.26.55,1.27.36,1.09.54,1.27.53,1.27.55,1.26.54,1.27.72,1.08.55,1.26.72,1.27.54,1.26.72,1.26s-11.94,55.91-55.91,60.08c0,0,.9-11.58,13.75-20.27,13.03-8.87,32.58-22.63,31.13-43.43,0,0-3.62.72-9.77,8.52s-19.91,30.4-40.9,30.57c0,0,3.07-10.67,12.48-16.65,9.24-6.15,21.18-13.93,26.61-23.34,5.43-9.22,11.04-13.56,14.84-15.37h0ZM1844.18,984.07l26.78,37.45,20.27-36-7.24-13.03c-5.25,9.58-11.04,19.73-14.11,25.53-2.35-3.62-9.05-13.03-17.91-25.53l-7.79,11.58Z"/>
    <path class="cls-1" d="M1837.47,952.4l-4.88-6.87-5.07-7.05-5.07-7.07-5.07-7.05-5.07-7.07-4.9-6.87-2.35-3.26-2.36-3.25-2.35-3.26-2.17-3.07-2.17-3.08-2-2.9-1.98-2.9-2-2.71-1.81-2.53-1.81-2.36-1.62-2.34-1.45-2-1.45-1.98-1.27-1.81-1.09-1.64-.9-1.45-.92-1.08-.72-1.08-.54-.73-.36-.53,10.14-7.24-31.85-12.13.53,34.57,10.86-7.79,64.06,90.12,7.6-11.58ZM1618.15,748.1l.72-.72.9-.72.72-.54.91-.53.9-.36.9-.36.9-.19.91-.19.91-.18h1.08l.92.18h1.08l1.08.36,1.09.17,1.08.36,1.09.36,1.09.55,1.27.54,1.08.55,1.27.55,1.08.72,1.28.72,1.26.9,1.08.72,1.27.9,1.26.9,1.26,1.09,1.27.9,1.26,1.08,1.08,1.08,1.26,1.09,1.26,1.09c13.39,12.31,21.89,24.97,14.12,33.66-7.24,7.79-21.36,1.08-34.57-11.22-13.55-12.29-21.87-24.95-14.1-33.45h0Z"/>
    <path class="cls-1" d="M1639.86,900.11l-.17-.18-.17-.19-.19-.17h-.19v-.18h-.17v-.19h-.17v-.19h-.19c-7.07-6.33-11.22-15.93-11.22-26.42,0-20.27,16.46-36.73,36.55-36.73s36.74,16.46,36.74,36.73c0,2.72-.55,7.06-.55,7.06,1.62-3.07,7.79-17.01,8.87-19.54-5.62-20.24-24.06-34.24-45.07-34.21-18.46,0-34.19,10.68-41.98,26.25,2.9-18.46,12.11-35.11,18.63-41.26,7.79-7.42,21.16-9.77,21.16-9.77-8.86,1.27-20.08-3.98-33.12-15.74-12.12-11.22-18.27-20.99-18.82-29.13.72,11.58.54,17.91-2.71,27.51-4.53,12.66-16.65,36.19-12.31,62.8,2.35,14.66,12.84,36.38,30.77,54.1,3.62,3.98,5.07,9.96,5.62,13.03,0,0,26.06,0,32.4.54,0,0,6.15-.54,5.79-4.53,0-3.81-3.43-4.71-6.32-4.71-3.27-.01-16.3.18-23.18-4.89h0ZM1784.27,908.97l-3.07,1.08-3.26,1.09-3.07.91-3.07.91-3.25.9-3.08.9-3.07.72-3.07.72-3.26.72-3.07.55-3.07.54-3.07.53-5.98,1.08-6.15.92c-10.14,1.62-20.27,2.17-30.04,1.81.17,1.62.17,3.62-.72,5.24,0,0,1.81,2.17,1.81,4.9,9.96.19,20.27-.19,30.58-1.98,17.37-2.72,35.65-6.15,53.92-13.03l-6.01-8.51ZM1811.78,907.71l4.15-2.36,4.16-2.53,4.15-2.71,4.15-2.9,3.98-3.07,4.15-3.25,3.98-3.43,4.15-3.62,3.98-3.79,3.79-4.16,3.98-4.15,3.79-4.53,3.98-4.89,3.79-4.9,3.62-5.25,1.98-2.71,1.81-2.9,3.43-5.79c-5.25,2.35-12.11.72-12.11.72-.36.53-1.26,1.98-1.81,2.53-18.1,26.97-38.36,44.16-59.18,55.37l6.05,8.31ZM1664.84,917.12h-1.81l-.55-.17h-5.97l-1.26.17h-1.45l-1.27.19h-1.45l-1.26.19h-1.26l-.72.17h-.55l-.55.18h-.54c-6.52.9-13.75,2.35-14.66,5.79-.54,3.43,1.62,7.05,4.9,12.12,2.17,3.07,6.87,1.45,9.41.36,2.72-1.09,17.92-9.05,20.27-11.76,2.35-2.53,3.26-6.34-1.27-7.24h0ZM1680.22,927.25l-.19-.18-.19-.19h-.17l-.17-.18h-.19l-.19-.17-.17-.19h-.36l-.19-.19h-.36l-.19-.18h-.36l-.17-.17h-.72l-.17-.19h-.72l-.36-.19h-2.53l-.36.19h-.36l-.36.19h-.36l-.36.17h-.36c-4.16,1.62-19,10.5-20.08,14.48-.92,4.17,1.08,6.34,3.43,7.24s5.07,1.81,7.24,1.98c3.62.19,7.24-1.98,9.24-4.34,1.81-2.35,8.69-10.67,9.77-12.67.9-1.64,1.62-4.53,0-5.43h0ZM1682.03,936.3l-.17.19-.18.36-.36.19-.17.36-.36.36-.36.36-.17.36-.36.36-.36.36-.36.54-.36.36-.36.36-.54.9-.72.91-.36.36-.36.55-.36.36-.36.36-.19.36-.36.36-.36.36-.19.36-.36.36-.19.36-.19.19-.17.36-.17.19v.19h-.19v.18l-.19.18c-.72,1.08.36,3.07,2.17,2.72,2-.19,12.12-1.27,18.1-5.24,5.79-3.98,9.77-11.58,5.79-14.48-4.17-2.94-10.32-1.49-17.2,5.94h0ZM1685.29,914.03h-.36l-.36-.18h-.55l-.36-.19h-.36l-.36-.17h-.72l-.54-.19h-.36l-.36-.17h-1.45l-.36-.18h-2.52l-.36.18h-.36l-.36.17h-.36v.19h-.36l-.19.17-.17.19h-.17v.18h-.19v.18c-2.17,3.26-.72,6.52,5.43,9.41,5.98,2.9,17.18,5.25,19.36,2.17,2.16-3.07-.74-8.31-13.58-11.75h0ZM1940.26,705.39l-.19.53-.36.72-.17.55-.17.72-.36.72-.19.72-.36.72-.36.72-.53,1.45-.72,1.45-.55,1.64-.72,1.45-.72,1.63-.36.72-.19.72-.36.53-.36.72-.17.72-.36.55-.19.72-.17.55-.19.53-.17.36-.19.54-.17.36-.19.55v.17c-1.26,6.52.55,14.48,12.31,22.8,0,0,7.79-5.43,10.67-12.48,2.9-6.52,1.08-11.22-1.62-14.48-3.07-3.63-9.94-11.42-12.84-16.66h0ZM1915.29,729.64l.17.36v2.19l.19.72v.9l.17.72.19.9v.91l.17,1.08.19,1.09.17,1.08.19,1.09.36,1.09.19,1.08.53,2.35.55,2.35.54,2.53.36,1.08.36,1.08.36,1.26.36,1.08.55,1.09.36,1.09.36,1.08.55.9.54.92.36.9c7.42,12.85,18.1,22.63,27.87,22.63,8.68,0,10.68-5.24,14.84-7.42,0,0-2.17-11.21-12.13-14.11-12.12-3.79-30.76-18.27-38.36-32.02h0Z"/>
    <path class="cls-1" d="M1946.97,753.17l.53-.36.36-.18.72-.55.36-.36.36-.19.36-.36.36-.17.36-.36.36-.36.17-.18.19-.19.17-.19.36-.18.19-.18.17-.19.19-.19.17-.18.19-.36.36-.19.17-.17.17-.36s9.41,3.43,17.2,8.69c7.6,5.25,15.2,14.11,19.36,18.64,0,0-11.58,2.9-19-.36,0,0-2.7-11.03-10.85-15.93-1.8-1.1-7.59-2.91-13.01-5.62h0ZM1956.74,743.76l.17-.18.19-.36.17-.19.19-.36.17-.36.17-.36.19-.36.36-.36.17-.36.19-.36.17-.55.19-.36.36-.36.17-.53.19-.54.17-.36.19-.53.17-.55.19-.55.17-.54.19-.53.17-.55v-.72l.19-.54v-.53l.17-.72v-1.27l.19-.72v-.72l-.19-.72v-.72s16.29,10.32,21.16,14.11c4.71,3.98,15.03,14.48,17.2,17.92,0,0-12.31-2.72-21.72-5.79-10.31-3.46-17.54-8.17-21.34-10.34h0ZM1984.24,761.3l.9.36.9.17.91.36,1.08.36,1.08.19,1.09.36,1.09.18,1.27.36,1.08.36,1.27.19,2.53.53,2.71.72,2.53.55,2.72.54,2.53.53,2.53.55,1.26.18,1.27.36,1.08.18,1.09.36,1.08.19,1.09.17.91.36.9.19.9.19.92.36c8.13,2.54,14.11,6.52,22.08,15.21,0,0-12.13,3.25-18.46,5.42,0,0-10.31-7.06-21.71-11.22-7.43-2.88-10.87-10.67-18.65-18.27h0ZM2002.51,819.4l-.36-.36-.36-.36-.36-.53-.36-.36-.17-.19-.19-.36-.17-.19-.19-.19v-.36l-.17-.19-.19-.36-.17-.17v-.36l-.19-.18v-.72l-.17-.17v-2.17l.17-.36v-.36l.19-.55.17-.36v-.55c1.45-3.43,8.51-7.43,12.84-9.41,7.24-3.43,26.79-8.69,33.12-10.67,0,0,3.07,3.79,4.9,7.79.55,1.62-.36,3.07-3.07,3.43-5.43,1.08-18.65-1.45-21.71.72-3.43,2.17-2.35,5.24-2.35,8.15,0,0-5.98-3.62-9.77-2.71-5.27,1.07-8.34,3.61-11.42,12.12h0ZM2020.07,792.26h-.35l-.19.19h-.36l-.17.17h-.36l-.36.18-.36.19h-.36l-.55.19-.36.18-.54.18-.36.19-.53.19-.55.18-.54.36-.72.19-.55.17-.53.36-.72.19-.54.36-.72.36-.55.19-.72.36-.72.36-.72.36-.53.36-.72.36-.72.36-.72.53-.72.36-.72.36s-3.26-1.26-4.9-4.34c-1.62-2.9-8.32-12.86-14.29-14.12,0,0,5.07-.36,8.14-1.45,0,0,6.34,1.62,10.86,3.62,4.5,1.62,10.1,4.52,16.81,8.86h0ZM1969.58,779.76h.17l.19.18h.17l.19.19h.17l.19.19h.36l.17.18h.36l.17.18h.55l.17.19h.55l.36.19h.72l.36.18h1.08l.36.18h1.27s17.37,11.94,19.36,23.71c1.62,10.31-3.62,15.2-6.34,16.47-2.53,1.45-14.48,6.15-22.44-9.77,0,0,13.2,4.34,17.01-1.98,3.62-6.52-2.17-15.93-5.98-18.46-4.71-3.62-13.39-6.15-18.46-5.07.03-.02,4.18-4,9.25-6.53h0Z"/>
    <path class="cls-1" d="M2082.32,916.4l-.91-3.26-.72-3.26-.9-3.43-.54-1.62-.55-1.62-.36-1.63-.53-1.81-.55-1.62-.72-1.62-.54-1.62-.72-1.64-.72-1.63-.72-1.62c-7.6-16.47-26.78-60.44-66.59-68.04-3.79-.9,4.17-10.13,7.79-9.6,3.62.36,10.67,5.07,13.94,7.07v-11.03c.17-1.62,1.62-2.35,3.07-2.35,1.62.18,11.22,0,14.3,3.62,9.05,10.5,24.44,38.72,32.94,59.72,8.86,20.99,14.84,27.51,23.88,24.25s14.48-13.75,30.58-10.49c5.62,1.09,11.75,4.9,16.47,10.32-1.27,2.53-2.9,5.79-10.5,5.79s-21.71,3.07-29.67,8.51c-7.99,5.54-16.31,7.54-27.71,8.63h0ZM1923.44,780.31l-.36,1.26-.17,1.26-.36,1.27-.36,1.26-.36,1.26-.36,1.27-.54,1.09-.55,1.27-.36,1.27-.72,1.26-.53,1.27-.55,1.08-.72,1.26-.55,1.27-1.45,2.54s12.12,55.91,56.1,60.07c0,0-.9-11.58-13.94-20.26-13.03-8.87-32.4-22.63-30.94-43.43,0,0,3.25.72,9.58,8.51,6.15,7.79,19.91,30.4,41.09,30.58,0,0-3.07-10.67-12.48-16.65-9.42-6.15-21.16-13.93-26.6-23.34-5.45-9.24-11.24-13.58-14.85-15.39h0ZM1894.29,834.6l.17.72.36.9.36.9.55.9.54,1.08.72,1.09.55,1.27.9,1.26.72,1.26.72,1.27.9,1.26.91,1.45.9,1.45,1.08,1.45,1.99,2.72,2,2.9,1.98,2.71,1.09,1.45,1.08,1.27.9,1.27,1.08,1.26.9,1.27.92,1.08.9,1.08.91,1.09.9.92.9.72.72.91.72.54c7.07,6.69,24.8,24.43,34.38,33.29,0,0-26.95-6.69-42.16-20.44,0,0-10.68,6.15-18.46,6.15h-.53c-7.79,0-18.63-6.15-18.63-6.15-15.03,13.76-41.98,20.44-41.98,20.44,9.41-8.86,27.14-26.61,34.38-33.29,7.24-6.52,23.89-30.04,26.42-37.45h.2Z"/>
    <path class="cls-1" d="M1894.29,896.66h1.09l.54-.18h1.63l1.09-.19,1.08-.19.92-.36,1.08-.19.9-.36,1.08-.18.9-.36.72-.36.92-.18.36-.19.36-.19.36-.18.36-.18.36-.19h.36l.36-.19.36-.18c-3.26,6.52-9.22,17.2-14.84,21.36h-.17c-5.79-4.16-11.77-14.84-15.03-21.36,3.26,1.45,8.86,3.81,14.84,3.81h.36Z"/>
    <path class="cls-1" d="M1917.29,1021.53l105.32-147.66,10.69,7.77.72-34.57-31.85,12.13,9.94,7.24c-5.07,7.43-83.78,117.63-93.74,131.55l-47.59-86.5-5.98,8.86-42.35,64.25-10.68-7.06v34.02l32.21-12.66-10.86-7.42c5.98-8.69,28.76-43.43,36.55-55.01l47.6,85.07Z"/>
    <path class="cls-1" d="M1936.64,963.44l-2.71-3.98-1.45-1.98-1.26-2-1.26-1.81-1.27-2-1.26-1.81-1.08-1.81-1.26-1.81-1.08-1.62-.55-.72-.53-.91-.36-.72-.54-.72-.55-.72-.36-.72-.53-.72-.36-.55-.36-.72-.55-.55-.36-.54-.36-.54c-2.53,4.88-7.96,14.65-13.94,25.34l-7.6-13.39,20.63-36.92,5.79,8.86,21.16,31.85-7.97,11.23ZM1958.36,973.03l7.43,11.58,10.67-7.07.17,34.02-32.21-12.66,10.67-7.42c-1.08-1.62-2.71-4.17-4.9-7.42l8.17-11.03ZM2170.27,748.1l-.72-.72-.9-.72-.72-.54-.92-.53-.9-.36-.91-.36-.9-.19-.9-.19-.91-.18h-1.08l-.9.18h-1.08l-1.08.36-1.09.17-1.09.36-1.08.36-1.28.55-1.08.54-1.08.55-1.26.55-1.08.72-1.26.72-1.27.9-1.26.72-1.08.9-1.26.9-1.27,1.09-1.26.9-1.26,1.08-1.27,1.08-1.26,1.09-1.26,1.09c-13.58,12.31-21.89,24.97-13.94,33.66,7.24,7.79,20.99,1.08,34.55-11.22,13.36-12.29,21.86-24.95,14.09-33.45h0Z"/>
    <path class="cls-1" d="M2148.37,900.11l.17-.18h.19v-.19h.17v-.17h.19v-.18h.17l.19-.19h.17v-.19h.19c7.05-6.33,11.03-15.93,11.03-26.42.05-20.24-16.32-36.68-36.55-36.73-.06,0-.13,0-.19,0-20.08,0-36.55,16.46-36.55,36.73,0,2.72.54,7.06.54,7.06-1.45-3.07-7.6-17.01-8.86-19.54,5.43-19.72,23.53-34.21,44.88-34.21,18.65,0,34.57,10.68,42.17,26.25-2.9-18.46-12.11-35.11-18.63-41.26-7.79-7.42-20.99-9.77-20.99-9.77,8.69,1.27,20.08-3.98,32.94-15.74,12.12-11.22,18.46-20.99,18.82-29.13-.72,11.58-.36,17.91,2.9,27.51,4.53,12.66,16.47,36.19,12.3,62.8-2.35,14.66-13.03,36.38-30.76,54.1-3.79,3.98-5.26,9.96-5.62,13.03,0,0-26.23,0-32.21.54,0,0-6.34-.54-6.15-4.53,0-3.81,3.62-4.71,6.52-4.71,3.25-.01,16.11.18,22.99-4.89h0ZM1976.45,907.71l-4.15-2.36-4.16-2.53-4.15-2.71-3.98-2.9-4.16-3.07-4.15-3.25-3.98-3.43-3.98-3.62-3.98-3.79-3.98-4.16-3.98-4.15-3.79-4.53-3.8-4.89-3.79-4.9-3.8-5.25-1.81-2.71-1.99-2.9-3.43-5.79c5.43,2.35,12.11.72,12.11.72.55.53,1.26,1.98,1.62,2.53,18.46,26.97,38.72,44.16,59.35,55.2l-6.04,8.49ZM2003.96,908.97l3.07,1.08,3.26,1.09,3.07.91,3.26.91,3.08.9,3.07.9,3.26.72,3.07.72,3.08.72,3.07.55,3.07.54,3.07.53,6.15,1.08,5.97.92c10.32,1.62,20.46,2.17,30.04,1.81,0,1.62,0,3.62.73,5.24,0,0-1.62,2.17-1.62,4.9-9.96.19-20.27-.19-30.76-1.98-17.37-2.72-35.66-6.15-54.1-13.03l6.18-8.51ZM2123.39,917.12h2l.54-.17h5.8l1.45.17h1.27l1.45.19h1.26l1.45.19h1.26l.55.17h.72l.53.18h.54c6.34.9,13.58,2.35,14.48,5.79.72,3.43-1.62,7.05-4.9,12.12-1.98,3.07-6.7,1.45-9.41.36s-17.73-9.05-20.27-11.76c-2.35-2.53-3.25-6.34,1.27-7.24h0ZM2108.19,927.25l.19-.18v-.19h.17l.36-.18h.19l.17-.17.19-.19h.17l.36-.19h.19l.36-.18h.19l.36-.17h.54l.36-.19h.55l.36-.19h2.53l.36.19h.36l.36.19h.36l.36.17h.36c4.15,1.62,19.01,10.5,20.08,14.48.91,4.17-1.08,6.34-3.26,7.24-2.53.9-5.26,1.81-7.43,1.98-3.62.19-7.24-1.98-9.05-4.34-1.98-2.35-8.86-10.67-9.77-12.67-1.08-1.64-1.62-4.53,0-5.43h0ZM2106.21,936.3l.17.19.36.36.19.19.17.36.36.36.36.36.19.36.36.36.36.36.36.54.36.36.36.36.72.9.72.91.72.91.19.36.36.36.36.36.36.36.17.36.36.36.19.36.36.36.17.19.19.36.17.19.17.19v.18l.19.18c.53,1.08-.54,3.07-2.35,2.72-2-.19-12.12-1.27-17.92-5.24-5.98-3.98-9.77-11.58-5.79-14.48,3.98-2.94,10.31-1.49,17.01,5.94h0ZM2102.95,914.03h.55l.17-.18h.55l.36-.19h.36l.36-.17h.72l.55-.19h.36l.53-.17h1.27l.36-.18h2.52l.36.18h.36l.36.17h.36l.19.19h.36v.17h.17l.19.19.17.18.19.18c1.98,3.26.54,6.52-5.43,9.41-5.98,2.9-17.37,5.25-19.54,2.17-2.19-3.07.9-8.31,13.56-11.75h0Z"/>
  </g>
</svg>