<?xml version="1.0" encoding="UTF-8"?>
<svg id="_Слой_1" data-name="Слой 1" xmlns="http://www.w3.org/2000/svg" viewBox="0 0 20 20">
  <defs>
    <style>
      .cls-1 {
        fill: #db6900;
        stroke-width: 0px;
      }
    </style>
  </defs>
  <path class="cls-1" d="M20,3c0,.55-.45,1-1,1H1c-.55,0-1-.45-1-1s.45-1,1-1h5v-1c0-.55.45-1,1-1h6c.55,0,1,.45,1,1v1h5c.55,0,1,.45,1,1ZM2.93,19.07l-.93-13.07h16l-.93,13.07c-.04.52-.47.93-1,.93H3.93c-.52,0-.96-.41-1-.93ZM13,16c0,.55.45,1,1,1s1-.45,1-1v-6c0-.55-.45-1-1-1s-1,.45-1,1v6ZM9,16c0,.55.45,1,1,1s1-.45,1-1v-6c0-.55-.45-1-1-1s-1,.45-1,1v6ZM5,16c0,.55.45,1,1,1s1-.45,1-1v-6c0-.55-.45-1-1-1s-1,.45-1,1v6Z"/>
</svg>